<?xml version="1.0" encoding="UTF-8" standalone="no"?>

<svg
   width="9.9881897mm"
   height="13.097778mm"
   viewBox="0 0 9.9881897 13.097778"
   version="1.1"
   id="svg5"
   xmlns="http://www.w3.org/2000/svg"
   xmlns:svg="http://www.w3.org/2000/svg"
   fill="#fff"
>
  <defs
     id="defs2" />
  <g
     id="layer1"
     transform="translate(-150.50882,-215.98521)">
    <g
       aria-label="D"
       id="text9336"
       style="font-size:44.0092px;stroke:#fff;stroke-width:4">
      <g
         id="g10519"
         transform="translate(9.651777,-0.50608569)"
         style="stroke:#fff;stroke-width:0.3;stroke-dasharray:none;stroke-opacity:1">
        <g
           aria-label="B"
           id="g10517"
           style="font-size:10.5833px;stroke:#fff;stroke-width:0.3;stroke-dasharray:none;stroke-opacity:1">
          <path
             id="path10515"
             style="-inkscape-font-specification:'Arial, Normal';stroke:#fff;stroke-width:0.4;stroke-linecap:round;stroke-linejoin:round;stroke-dasharray:none;stroke-opacity:1;paint-order:fill markers stroke"
             d="m 141.05752,216.6913 c 0,-0.0413 0,3.41693 0,3.41693 l 1.68031,-3e-5 v -1.91852 h 2.53779 c 0.91233,0 1.55618,0.0605 1.9315,0.18189 0.37533,0.11548 0.66404,0.33492 0.86614,0.65827 0.20208,0.31758 0.30315,0.68714 0.30315,1.10866 0,0.44461 -0.10978,0.81419 -0.32913,1.10866 -0.21365,0.29449 -0.53414,0.50524 -0.96142,0.63229 -0.32337,0.0981 -0.85754,0.14733 -1.60235,0.14733 h -1.59978 l 0.003,1.49842 h 1.78685 c 0.80839,0 1.42626,0.0722 1.85354,0.21653 0.43307,0.13861 0.77087,0.38399 1.01338,0.73622 0.24243,0.34646 0.36378,0.75645 0.36378,1.22993 0,0.4042 -0.0838,0.7622 -0.25118,1.074 -0.16744,0.30604 -0.38109,0.53983 -0.64093,0.70158 -0.25985,0.16174 -0.58321,0.27724 -0.97009,0.34646 -0.21941,0.0404 -0.60054,0.0607 -1.14331,0.0607 h -3.16141 v -1.57463 l -1.68031,2e-5 v 3.07307 h 4.84172 c 0.8084,0 1.48978,-0.0692 2.04411,-0.20789 0.56009,-0.14431 1.02494,-0.35511 1.39448,-0.63228 0.36956,-0.27716 0.67847,-0.66982 0.92676,-1.17796 0.25406,-0.5139 0.38111,-1.06822 0.38111,-1.66297 0,-0.73911 -0.20787,-1.38006 -0.62362,-1.92284 -0.40999,-0.54279 -0.99897,-0.92679 -1.76693,-1.15198 0.59476,-0.29448 1.03939,-0.68134 1.33386,-1.16062 0.29441,-0.47926 0.44173,-0.99028 0.44173,-1.53306 0,-0.5832 -0.16744,-1.14043 -0.50237,-1.67166 -0.32913,-0.537 -0.78818,-0.93256 -1.37715,-1.18662 -0.5832,-0.25988 -1.35986,-0.38976 -2.32993,-0.38976 z" />
        </g>
      </g>
    </g>
  </g>
</svg>
