<svg
   width="37.136475mm"
   height="37.136536mm"
   viewBox="0 0 37.136475 37.136536"
   version="1.1"
   id="svg5"
   xml:space="preserve"
   sodipodi:docname="hyper.svg"
   inkscape:version="1.2.1 (9c6d41e410, 2022-07-14)"
   xmlns:inkscape="http://www.inkscape.org/namespaces/inkscape"
   xmlns:sodipodi="http://sodipodi.sourceforge.net/DTD/sodipodi-0.dtd"
   xmlns="http://www.w3.org/2000/svg"
   xmlns:svg="http://www.w3.org/2000/svg"><sodipodi:namedview
     id="namedview7"
     pagecolor="#ffffff"
     bordercolor="#666666"
     borderopacity="1.0"
     inkscape:showpageshadow="2"
     inkscape:pageopacity="0.0"
     inkscape:pagecheckerboard="0"
     inkscape:deskcolor="#d1d1d1"
     inkscape:document-units="mm"
     showgrid="false"
     inkscape:zoom="0.14756945"
     inkscape:cx="6705.3175"
     inkscape:cy="3201.8823"
     inkscape:window-width="2067"
     inkscape:window-height="1259"
     inkscape:window-x="311"
     inkscape:window-y="40"
     inkscape:window-maximized="0"
     inkscape:current-layer="g1556" /><defs
     id="defs2"><inkscape:path-effect
       origin="903.8257,438.26531"
       starting_point="1003.8257,438.26531"
       effect="copy_rotate"
       id="path-effect2032"
       is_visible="true"
       lpeversion="1.2"
       lpesatellites=""
       method="normal"
       num_copies="8"
       starting_angle="0"
       rotation_angle="45"
       gap="-0.01"
       copies_to_360="true"
       mirror_copies="false"
       split_items="false"
       link_styles="false" /><inkscape:path-effect
       origin="903.8257,438.26531"
       starting_point="1003.8257,438.26531"
       effect="copy_rotate"
       id="path-effect1857"
       is_visible="true"
       lpeversion="1.2"
       lpesatellites=""
       method="normal"
       num_copies="8"
       starting_angle="0"
       rotation_angle="45"
       gap="-0.01"
       copies_to_360="true"
       mirror_copies="false"
       split_items="false"
       link_styles="false" /><inkscape:path-effect
       origin="903.8257,438.26531"
       starting_point="1003.8257,438.26531"
       effect="copy_rotate"
       id="path-effect1847"
       is_visible="true"
       lpeversion="1.2"
       lpesatellites=""
       method="normal"
       num_copies="8"
       starting_angle="0"
       rotation_angle="45"
       gap="-0.01"
       copies_to_360="true"
       mirror_copies="false"
       split_items="false"
       link_styles="false" /><inkscape:path-effect
       origin="903.8257,438.26531"
       starting_point="1003.8257,438.26531"
       effect="copy_rotate"
       id="path-effect1837"
       is_visible="true"
       lpeversion="1.2"
       lpesatellites=""
       method="normal"
       num_copies="8"
       starting_angle="0"
       rotation_angle="45"
       gap="-0.01"
       copies_to_360="true"
       mirror_copies="false"
       split_items="false"
       link_styles="false" /><inkscape:path-effect
       origin="903.8257,438.26531"
       starting_point="1003.8257,438.26531"
       effect="copy_rotate"
       id="path-effect1776"
       is_visible="true"
       lpeversion="1.2"
       lpesatellites=""
       method="normal"
       num_copies="8"
       starting_angle="0"
       rotation_angle="45"
       gap="-0.01"
       copies_to_360="true"
       mirror_copies="false"
       split_items="false"
       link_styles="false" /><inkscape:path-effect
       origin="903.8257,438.26531"
       starting_point="1003.8257,438.26531"
       effect="copy_rotate"
       id="path-effect1560"
       is_visible="true"
       lpeversion="1.2"
       lpesatellites=""
       method="normal"
       num_copies="8"
       starting_angle="0"
       rotation_angle="45"
       gap="-0.01"
       copies_to_360="true"
       mirror_copies="false"
       split_items="false"
       link_styles="false" /><inkscape:path-effect
       origin="903.8257,438.26531"
       starting_point="1003.8257,438.26531"
       effect="copy_rotate"
       id="path-effect1492"
       is_visible="true"
       lpeversion="1.2"
       lpesatellites=""
       method="normal"
       num_copies="8"
       starting_angle="0"
       rotation_angle="45"
       gap="-0.01"
       copies_to_360="true"
       mirror_copies="false"
       split_items="false"
       link_styles="false" /><inkscape:path-effect
       origin="903.8257,438.26531"
       starting_point="1003.8257,438.26531"
       effect="copy_rotate"
       id="path-effect1160"
       is_visible="true"
       lpeversion="1.2"
       lpesatellites=""
       method="normal"
       num_copies="8"
       starting_angle="0"
       rotation_angle="45"
       gap="-0.01"
       copies_to_360="true"
       mirror_copies="false"
       split_items="false"
       link_styles="false" /><inkscape:path-effect
       origin="903.8257,438.26531"
       starting_point="1003.8257,438.26531"
       effect="copy_rotate"
       id="path-effect1160-2"
       is_visible="true"
       lpeversion="1.2"
       lpesatellites=""
       method="normal"
       num_copies="8"
       starting_angle="0"
       rotation_angle="45"
       gap="-0.01"
       copies_to_360="true"
       mirror_copies="false"
       split_items="false"
       link_styles="false" /></defs><g
     inkscape:label="Layer 1"
     inkscape:groupmode="layer"
     id="layer1"
     transform="translate(-957.87875,-819.38279)"><g
       id="g1156"
       transform="translate(65.442352,46.49553)"><text
         xml:space="preserve"
         style="font-style:normal;font-variant:normal;font-weight:normal;font-stretch:normal;font-size:6.16779px;line-height:1.25;font-family:'Stretch Pro';-inkscape-font-specification:'Stretch Pro, @wght=400';font-variant-ligatures:normal;font-variant-caps:normal;font-variant-numeric:normal;font-variant-east-asian:normal;font-variation-settings:'wght' 400;letter-spacing:0.193175px;fill:#ffffff;fill-opacity:1;stroke:#ffffff;stroke-width:0.0782264;stroke-dasharray:none;stroke-opacity:1"
         x="881.06873"
         y="702.54907"
         id="text1152"><tspan
           sodipodi:role="line"
           id="tspan1150"
           style="font-style:normal;font-variant:normal;font-weight:normal;font-stretch:normal;font-size:6.16779px;font-family:'Stretch Pro';-inkscape-font-specification:'Stretch Pro, @wght=400';font-variant-ligatures:normal;font-variant-caps:normal;font-variant-numeric:normal;font-variant-east-asian:normal;font-variation-settings:'wght' 400;fill:#ffffff;fill-opacity:1;stroke:#ffffff;stroke-width:0.0782264;stroke-dasharray:none;stroke-opacity:1"
           x="881.06873"
           y="702.54907">Hypertensor</tspan></text><g
         id="g2022"><path
           d="m 900.99702,436.24555 c 0.005,-4.51717 0.01,-9.03434 0.0149,-13.55151 2.44249,-1.36507 6.06614,-1.37432 6.74688,-0.32145 0.68074,1.05287 1.65786,2.13858 -0.23986,4.30561 -1.06517,1.21633 -3.37141,4.24509 -3.82125,4.82853 -0.44984,0.58344 -1.44459,2.23485 -0.77001,2.63065 m -2.53034,4.69992 c -3.19059,-3.19765 -6.38118,-6.39531 -9.57183,-9.5929 0.76185,-2.69235 3.31761,-5.2612 4.54346,-4.99806 1.22585,0.26313 2.68449,0.33992 2.87492,3.21413 0.10689,1.61327 0.61779,5.38568 0.71226,6.11632 0.0945,0.73064 0.55879,2.60176 1.31567,2.40463 m 1.53412,5.11257 c -4.51717,-0.005 -9.03434,-0.01 -13.55151,-0.0149 -1.36507,-2.44249 -1.37432,-6.06614 -0.32145,-6.74688 1.05287,-0.68074 2.13858,-1.65786 4.30561,0.23986 1.21633,1.06517 4.24509,3.37141 4.82853,3.82125 0.58344,0.44984 2.23485,1.44459 2.63065,0.77001 m 4.69992,2.53034 c -3.19765,3.19059 -6.39531,6.38118 -9.5929,9.57183 -2.69235,-0.76185 -5.2612,-3.31761 -4.99806,-4.54346 0.26313,-1.22585 0.33992,-2.68449 3.21413,-2.87492 1.61327,-0.10689 5.38568,-0.61779 6.11632,-0.71226 0.73064,-0.0945 2.60176,-0.55879 2.40463,-1.31567 m 5.11257,-1.53412 c -0.005,4.51717 -0.01,9.03434 -0.0149,13.55151 -2.44249,1.36507 -6.06614,1.37432 -6.74688,0.32145 -0.68074,-1.05287 -1.65786,-2.13858 0.23986,-4.30561 1.06517,-1.21633 3.37141,-4.24509 3.82125,-4.82853 0.44984,-0.58344 1.44459,-2.23485 0.77001,-2.63065 m 2.53034,-4.69992 c 3.19059,3.19765 6.38118,6.39531 9.57183,9.5929 -0.76185,2.69235 -3.31761,5.2612 -4.54346,4.99806 -1.22585,-0.26313 -2.68449,-0.33992 -2.87492,-3.21413 -0.10689,-1.61327 -0.61779,-5.38568 -0.71226,-6.11632 -0.0945,-0.73064 -0.55879,-2.60176 -1.31567,-2.40463 m -1.53412,-5.11257 c 4.51717,0.005 9.03434,0.01 13.55151,0.0149 1.36507,2.44249 1.37432,6.06614 0.32145,6.74688 -1.05287,0.68074 -2.13858,1.65786 -4.30561,-0.23986 -1.21633,-1.06517 -4.24509,-3.37141 -4.82853,-3.82125 -0.58344,-0.44984 -2.23485,-1.44459 -2.63065,-0.77001 m -4.69992,-2.53034 c 3.19765,-3.19059 6.39531,-6.38118 9.5929,-9.57183 2.69235,0.76185 5.2612,3.31761 4.99806,4.54346 -0.26313,1.22585 -0.33992,2.68449 -3.21413,2.87492 -1.61327,0.10689 -5.38568,0.61779 -6.11632,0.71226 -0.73064,0.0945 -2.60176,0.55879 -2.40463,1.31567"
           style="fill:#ffffff;fill-opacity:1;stroke-width:0.264583"
           id="path1148"
           transform="matrix(-1.115682,0,0,-1.115682,1919.3867,1165.0504)"
           inkscape:original-d="m 900.99702,436.24555 c 0.005,-4.51717 0.01,-9.03434 0.0149,-13.55151 2.44249,-1.36507 6.06614,-1.37432 6.74688,-0.32145 0.68074,1.05287 1.65786,2.13858 -0.23986,4.30561 -1.06517,1.21633 -3.37141,4.24509 -3.82125,4.82853 -0.44984,0.58344 -1.44459,2.23485 -0.77001,2.63065"
           inkscape:path-effect="#path-effect1160"
           class="UnoptimicedTransforms"
           sodipodi:nodetypes="cczssc"
           inkscape:export-filename="Users\Bob\vect-black2.svg"
           inkscape:export-xdpi="96"
           inkscape:export-ydpi="96" /><circle
           style="fill:none;fill-opacity:1;stroke:#ffffff;stroke-width:0.873258;stroke-linecap:square;stroke-linejoin:round;stroke-dasharray:none;stroke-opacity:1;paint-order:fill markers stroke"
           id="circle1154"
           cx="911.0047"
           cy="676.08557"
           r="4.3018131" /></g><g
         id="g1351"
         transform="matrix(1.0584243,0,0,1.0584243,-43.217627,-51.502099)"><path
           d="m 900.99702,436.24555 c 0.005,-4.51717 0.01,-9.03434 0.0149,-13.55151 2.44249,-1.36507 6.06614,-1.37432 6.74688,-0.32145 0.68074,1.05287 1.65786,2.13858 -0.23986,4.30561 -1.06517,1.21633 -3.37141,4.24509 -3.82125,4.82853 -0.44984,0.58344 -1.44459,2.23485 -0.77001,2.63065 m -2.53034,4.69992 c -3.19059,-3.19765 -6.38118,-6.39531 -9.57183,-9.5929 0.76185,-2.69235 3.31761,-5.2612 4.54346,-4.99806 1.22585,0.26313 2.68449,0.33992 2.87492,3.21413 0.10689,1.61327 0.61779,5.38568 0.71226,6.11632 0.0945,0.73064 0.55879,2.60176 1.31567,2.40463 m 1.53412,5.11257 c -4.51717,-0.005 -9.03434,-0.01 -13.55151,-0.0149 -1.36507,-2.44249 -1.37432,-6.06614 -0.32145,-6.74688 1.05287,-0.68074 2.13858,-1.65786 4.30561,0.23986 1.21633,1.06517 4.24509,3.37141 4.82853,3.82125 0.58344,0.44984 2.23485,1.44459 2.63065,0.77001 m 4.69992,2.53034 c -3.19765,3.19059 -6.39531,6.38118 -9.5929,9.57183 -2.69235,-0.76185 -5.2612,-3.31761 -4.99806,-4.54346 0.26313,-1.22585 0.33992,-2.68449 3.21413,-2.87492 1.61327,-0.10689 5.38568,-0.61779 6.11632,-0.71226 0.73064,-0.0945 2.60176,-0.55879 2.40463,-1.31567 m 5.11257,-1.53412 c -0.005,4.51717 -0.01,9.03434 -0.0149,13.55151 -2.44249,1.36507 -6.06614,1.37432 -6.74688,0.32145 -0.68074,-1.05287 -1.65786,-2.13858 0.23986,-4.30561 1.06517,-1.21633 3.37141,-4.24509 3.82125,-4.82853 0.44984,-0.58344 1.44459,-2.23485 0.77001,-2.63065 m 2.53034,-4.69992 c 3.19059,3.19765 6.38118,6.39531 9.57183,9.5929 -0.76185,2.69235 -3.31761,5.2612 -4.54346,4.99806 -1.22585,-0.26313 -2.68449,-0.33992 -2.87492,-3.21413 -0.10689,-1.61327 -0.61779,-5.38568 -0.71226,-6.11632 -0.0945,-0.73064 -0.55879,-2.60176 -1.31567,-2.40463 m -1.53412,-5.11257 c 4.51717,0.005 9.03434,0.01 13.55151,0.0149 1.36507,2.44249 1.37432,6.06614 0.32145,6.74688 -1.05287,0.68074 -2.13858,1.65786 -4.30561,-0.23986 -1.21633,-1.06517 -4.24509,-3.37141 -4.82853,-3.82125 -0.58344,-0.44984 -2.23485,-1.44459 -2.63065,-0.77001 m -4.69992,-2.53034 c 3.19765,-3.19059 6.39531,-6.38118 9.5929,-9.57183 2.69235,0.76185 5.2612,3.31761 4.99806,4.54346 -0.26313,1.22585 -0.33992,2.68449 -3.21413,2.87492 -1.61327,0.10689 -5.38568,0.61779 -6.11632,0.71226 -0.73064,0.0945 -2.60176,0.55879 -2.40463,1.31567"
           style="fill:#ffffff;fill-opacity:1;stroke-width:0.264583"
           id="path1148-6"
           transform="matrix(-0.78104606,0,0,-0.78104606,1656.6295,963.83986)"
           inkscape:original-d="m 900.99702,436.24555 c 0.005,-4.51717 0.01,-9.03434 0.0149,-13.55151 2.44249,-1.36507 6.06614,-1.37432 6.74688,-0.32145 0.68074,1.05287 1.65786,2.13858 -0.23986,4.30561 -1.06517,1.21633 -3.37141,4.24509 -3.82125,4.82853 -0.44984,0.58344 -1.44459,2.23485 -0.77001,2.63065"
           inkscape:path-effect="#path-effect1160-2"
           class="UnoptimicedTransforms"
           sodipodi:nodetypes="cczssc"
           inkscape:export-filename="Users\Bob\vect-black2.svg"
           inkscape:export-xdpi="96"
           inkscape:export-ydpi="96" /><text
           xml:space="preserve"
           style="font-style:normal;font-variant:normal;font-weight:normal;font-stretch:normal;font-size:4.31783px;line-height:1.25;font-family:'Stretch Pro';-inkscape-font-specification:'Stretch Pro, @wght=400';font-variant-ligatures:normal;font-variant-caps:normal;font-variant-numeric:normal;font-variant-east-asian:normal;font-variation-settings:'wght' 400;letter-spacing:0.135234px;fill:#ffffff;fill-opacity:1;stroke:#ffffff;stroke-width:0.0547633;stroke-dasharray:none;stroke-opacity:1"
           x="929.74298"
           y="640.06055"
           id="text1152-5"><tspan
             sodipodi:role="line"
             id="tspan1150-5"
             style="font-style:normal;font-variant:normal;font-weight:normal;font-stretch:normal;font-size:4.31783px;font-family:'Stretch Pro';-inkscape-font-specification:'Stretch Pro, @wght=400';font-variant-ligatures:normal;font-variant-caps:normal;font-variant-numeric:normal;font-variant-east-asian:normal;font-variation-settings:'wght' 400;fill:#ffffff;fill-opacity:1;stroke:#ffffff;stroke-width:0.0547633;stroke-dasharray:none;stroke-opacity:1"
             x="929.74298"
             y="640.06055">Hypertensor</tspan></text><circle
           style="fill:none;fill-opacity:1;stroke:#ffffff;stroke-width:0.611334;stroke-linecap:square;stroke-linejoin:round;stroke-dasharray:none;stroke-opacity:1;paint-order:fill markers stroke"
           id="circle1154-9"
           cx="950.70001"
           cy="621.53442"
           r="3.011534" /><path
           d="m 900.99702,436.24555 c 0.005,-4.51717 0.01,-9.03434 0.0149,-13.55151 2.44249,-1.36507 6.06614,-1.37432 6.74688,-0.32145 0.68074,1.05287 1.65786,2.13858 -0.23986,4.30561 -1.06517,1.21633 -3.37141,4.24509 -3.82125,4.82853 -0.44984,0.58344 -1.44459,2.23485 -0.77001,2.63065 m -2.53034,4.69992 c -3.19059,-3.19765 -6.38118,-6.39531 -9.57183,-9.5929 0.76185,-2.69235 3.31761,-5.2612 4.54346,-4.99806 1.22585,0.26313 2.68449,0.33992 2.87492,3.21413 0.10689,1.61327 0.61779,5.38568 0.71226,6.11632 0.0945,0.73064 0.55879,2.60176 1.31567,2.40463 m 1.53412,5.11257 c -4.51717,-0.005 -9.03434,-0.01 -13.55151,-0.0149 -1.36507,-2.44249 -1.37432,-6.06614 -0.32145,-6.74688 1.05287,-0.68074 2.13858,-1.65786 4.30561,0.23986 1.21633,1.06517 4.24509,3.37141 4.82853,3.82125 0.58344,0.44984 2.23485,1.44459 2.63065,0.77001 m 4.69992,2.53034 c -3.19765,3.19059 -6.39531,6.38118 -9.5929,9.57183 -2.69235,-0.76185 -5.2612,-3.31761 -4.99806,-4.54346 0.26313,-1.22585 0.33992,-2.68449 3.21413,-2.87492 1.61327,-0.10689 5.38568,-0.61779 6.11632,-0.71226 0.73064,-0.0945 2.60176,-0.55879 2.40463,-1.31567 m 5.11257,-1.53412 c -0.005,4.51717 -0.01,9.03434 -0.0149,13.55151 -2.44249,1.36507 -6.06614,1.37432 -6.74688,0.32145 -0.68074,-1.05287 -1.65786,-2.13858 0.23986,-4.30561 1.06517,-1.21633 3.37141,-4.24509 3.82125,-4.82853 0.44984,-0.58344 1.44459,-2.23485 0.77001,-2.63065 m 2.53034,-4.69992 c 3.19059,3.19765 6.38118,6.39531 9.57183,9.5929 -0.76185,2.69235 -3.31761,5.2612 -4.54346,4.99806 -1.22585,-0.26313 -2.68449,-0.33992 -2.87492,-3.21413 -0.10689,-1.61327 -0.61779,-5.38568 -0.71226,-6.11632 -0.0945,-0.73064 -0.55879,-2.60176 -1.31567,-2.40463 m -1.53412,-5.11257 c 4.51717,0.005 9.03434,0.01 13.55151,0.0149 1.36507,2.44249 1.37432,6.06614 0.32145,6.74688 -1.05287,0.68074 -2.13858,1.65786 -4.30561,-0.23986 -1.21633,-1.06517 -4.24509,-3.37141 -4.82853,-3.82125 -0.58344,-0.44984 -2.23485,-1.44459 -2.63065,-0.77001 m -4.69992,-2.53034 c 3.19765,-3.19059 6.39531,-6.38118 9.5929,-9.57183 2.69235,0.76185 5.2612,3.31761 4.99806,4.54346 -0.26313,1.22585 -0.33992,2.68449 -3.21413,2.87492 -1.61327,0.10689 -5.38568,0.61779 -6.11632,0.71226 -0.73064,0.0945 -2.60176,0.55879 -2.40463,1.31567"
           style="fill:#ffffff;fill-opacity:1;stroke-width:0.264583"
           id="path1488"
           transform="matrix(-0.78104606,0,0,-0.78104606,1656.6295,963.83986)"
           inkscape:original-d="m 900.99702,436.24555 c 0.005,-4.51717 0.01,-9.03434 0.0149,-13.55151 2.44249,-1.36507 6.06614,-1.37432 6.74688,-0.32145 0.68074,1.05287 1.65786,2.13858 -0.23986,4.30561 -1.06517,1.21633 -3.37141,4.24509 -3.82125,4.82853 -0.44984,0.58344 -1.44459,2.23485 -0.77001,2.63065"
           inkscape:path-effect="#path-effect1492"
           class="UnoptimicedTransforms"
           sodipodi:nodetypes="cczssc"
           inkscape:export-filename="Users\Bob\vect-black2.svg"
           inkscape:export-xdpi="96"
           inkscape:export-ydpi="96" /></g><g
         id="g1556"
         transform="matrix(1.0584243,0,0,1.0584243,17.478339,-31.375761)"><g
           id="g1568"
           transform="matrix(1.2994794,0,0,1.2994794,-254.76954,-201.87617)"><path
             d="m 900.99702,436.24555 c 0.005,-4.51717 0.01,-9.03434 0.0149,-13.55151 2.44249,-1.36507 6.06614,-1.37432 6.74688,-0.32145 0.68074,1.05287 1.65786,2.13858 -0.23986,4.30561 -1.06517,1.21633 -3.37141,4.24509 -3.82125,4.82853 -0.44984,0.58344 -1.44459,2.23485 -0.77001,2.63065 m -2.53034,4.69992 c -3.19059,-3.19765 -6.38118,-6.39531 -9.57183,-9.5929 0.76185,-2.69235 3.31761,-5.2612 4.54346,-4.99806 1.22585,0.26313 2.68449,0.33992 2.87492,3.21413 0.10689,1.61327 0.61779,5.38568 0.71226,6.11632 0.0945,0.73064 0.55879,2.60176 1.31567,2.40463 m 1.53412,5.11257 c -4.51717,-0.005 -9.03434,-0.01 -13.55151,-0.0149 -1.36507,-2.44249 -1.37432,-6.06614 -0.32145,-6.74688 1.05287,-0.68074 2.13858,-1.65786 4.30561,0.23986 1.21633,1.06517 4.24509,3.37141 4.82853,3.82125 0.58344,0.44984 2.23485,1.44459 2.63065,0.77001 m 4.69992,2.53034 c -3.19765,3.19059 -6.39531,6.38118 -9.5929,9.57183 -2.69235,-0.76185 -5.2612,-3.31761 -4.99806,-4.54346 0.26313,-1.22585 0.33992,-2.68449 3.21413,-2.87492 1.61327,-0.10689 5.38568,-0.61779 6.11632,-0.71226 0.73064,-0.0945 2.60176,-0.55879 2.40463,-1.31567 m 5.11257,-1.53412 c -0.005,4.51717 -0.01,9.03434 -0.0149,13.55151 -2.44249,1.36507 -6.06614,1.37432 -6.74688,0.32145 -0.68074,-1.05287 -1.65786,-2.13858 0.23986,-4.30561 1.06517,-1.21633 3.37141,-4.24509 3.82125,-4.82853 0.44984,-0.58344 1.44459,-2.23485 0.77001,-2.63065 m 2.53034,-4.69992 c 3.19059,3.19765 6.38118,6.39531 9.57183,9.5929 -0.76185,2.69235 -3.31761,5.2612 -4.54346,4.99806 -1.22585,-0.26313 -2.68449,-0.33992 -2.87492,-3.21413 -0.10689,-1.61327 -0.61779,-5.38568 -0.71226,-6.11632 -0.0945,-0.73064 -0.55879,-2.60176 -1.31567,-2.40463 m -1.53412,-5.11257 c 4.51717,0.005 9.03434,0.01 13.55151,0.0149 1.36507,2.44249 1.37432,6.06614 0.32145,6.74688 -1.05287,0.68074 -2.13858,1.65786 -4.30561,-0.23986 -1.21633,-1.06517 -4.24509,-3.37141 -4.82853,-3.82125 -0.58344,-0.44984 -2.23485,-1.44459 -2.63065,-0.77001 m -4.69992,-2.53034 c 3.19765,-3.19059 6.39531,-6.38118 9.5929,-9.57183 2.69235,0.76185 5.2612,3.31761 4.99806,4.54346 -0.26313,1.22585 -0.33992,2.68449 -3.21413,2.87492 -1.61327,0.10689 -5.38568,0.61779 -6.11632,0.71226 -0.73064,0.0945 -2.60176,0.55879 -2.40463,1.31567"
             style="fill:#ffffff;fill-opacity:1;stroke-width:0.264583"
             id="path1546"
             transform="matrix(-0.78104606,0,0,-0.78104606,1656.6295,963.83986)"
             inkscape:original-d="m 900.99702,436.24555 c 0.005,-4.51717 0.01,-9.03434 0.0149,-13.55151 2.44249,-1.36507 6.06614,-1.37432 6.74688,-0.32145 0.68074,1.05287 1.65786,2.13858 -0.23986,4.30561 -1.06517,1.21633 -3.37141,4.24509 -3.82125,4.82853 -0.44984,0.58344 -1.44459,2.23485 -0.77001,2.63065"
             inkscape:path-effect="#path-effect1560"
             class="UnoptimicedTransforms"
             sodipodi:nodetypes="cczssc"
             inkscape:export-filename="Users\Bob\vect-black2.svg"
             inkscape:export-xdpi="96"
             inkscape:export-ydpi="96" /><circle
             style="fill:none;fill-opacity:1;stroke:#ffffff;stroke-width:0.611334;stroke-linecap:square;stroke-linejoin:round;stroke-dasharray:none;stroke-opacity:1;paint-order:fill markers stroke"
             id="circle1552"
             cx="950.70001"
             cy="621.53442"
             r="3.011534" /></g><rect
           style="font-variation-settings:'wght' 400;fill:#000000;fill-opacity:1;stroke:none;stroke-width:0.393294;stroke-linecap:square;stroke-linejoin:round;stroke-opacity:1;paint-order:fill markers stroke"
           id="rect1764"
           width="1416.8077"
           height="472.00705"
           x="928.00702"
           y="673.06934"
           inkscape:export-filename="twit-banner2.png"
           inkscape:export-xdpi="96"
           inkscape:export-ydpi="96" /></g><text
         xml:space="preserve"
         style="font-style:normal;font-variant:normal;font-weight:normal;font-stretch:normal;font-size:42.3194px;line-height:1.25;font-family:'Stretch Pro';-inkscape-font-specification:'Stretch Pro, @wght=400';font-variant-ligatures:normal;font-variant-caps:normal;font-variant-numeric:normal;font-variant-east-asian:normal;font-variation-settings:'wght' 400;letter-spacing:1.32544px;fill:#ffffff;fill-opacity:1;stroke:#ffffff;stroke-width:0.536739;stroke-dasharray:none;stroke-opacity:1"
         x="1908.6669"
         y="1079.8723"
         id="text1770"><tspan
           sodipodi:role="line"
           id="tspan1768"
           style="font-style:normal;font-variant:normal;font-weight:normal;font-stretch:normal;font-size:42.3194px;font-family:'Stretch Pro';-inkscape-font-specification:'Stretch Pro, @wght=400';font-variant-ligatures:normal;font-variant-caps:normal;font-variant-numeric:normal;font-variant-east-asian:normal;font-variation-settings:'wght' 400;fill:#ffffff;fill-opacity:1;stroke:#ffffff;stroke-width:0.536739;stroke-dasharray:none;stroke-opacity:1"
           x="1908.6669"
           y="1079.8723">Hypertensor</tspan></text><g
         id="g1827"><path
           d="m 900.99702,436.24555 c 0.005,-4.51717 0.01,-9.03434 0.0149,-13.55151 2.44249,-1.36507 6.06614,-1.37432 6.74688,-0.32145 0.68074,1.05287 1.65786,2.13858 -0.23986,4.30561 -1.06517,1.21633 -3.37141,4.24509 -3.82125,4.82853 -0.44984,0.58344 -1.44459,2.23485 -0.77001,2.63065 m -2.53034,4.69992 c -3.19059,-3.19765 -6.38118,-6.39531 -9.57183,-9.5929 0.76185,-2.69235 3.31761,-5.2612 4.54346,-4.99806 1.22585,0.26313 2.68449,0.33992 2.87492,3.21413 0.10689,1.61327 0.61779,5.38568 0.71226,6.11632 0.0945,0.73064 0.55879,2.60176 1.31567,2.40463 m 1.53412,5.11257 c -4.51717,-0.005 -9.03434,-0.01 -13.55151,-0.0149 -1.36507,-2.44249 -1.37432,-6.06614 -0.32145,-6.74688 1.05287,-0.68074 2.13858,-1.65786 4.30561,0.23986 1.21633,1.06517 4.24509,3.37141 4.82853,3.82125 0.58344,0.44984 2.23485,1.44459 2.63065,0.77001 m 4.69992,2.53034 c -3.19765,3.19059 -6.39531,6.38118 -9.5929,9.57183 -2.69235,-0.76185 -5.2612,-3.31761 -4.99806,-4.54346 0.26313,-1.22585 0.33992,-2.68449 3.21413,-2.87492 1.61327,-0.10689 5.38568,-0.61779 6.11632,-0.71226 0.73064,-0.0945 2.60176,-0.55879 2.40463,-1.31567 m 5.11257,-1.53412 c -0.005,4.51717 -0.01,9.03434 -0.0149,13.55151 -2.44249,1.36507 -6.06614,1.37432 -6.74688,0.32145 -0.68074,-1.05287 -1.65786,-2.13858 0.23986,-4.30561 1.06517,-1.21633 3.37141,-4.24509 3.82125,-4.82853 0.44984,-0.58344 1.44459,-2.23485 0.77001,-2.63065 m 2.53034,-4.69992 c 3.19059,3.19765 6.38118,6.39531 9.57183,9.5929 -0.76185,2.69235 -3.31761,5.2612 -4.54346,4.99806 -1.22585,-0.26313 -2.68449,-0.33992 -2.87492,-3.21413 -0.10689,-1.61327 -0.61779,-5.38568 -0.71226,-6.11632 -0.0945,-0.73064 -0.55879,-2.60176 -1.31567,-2.40463 m -1.53412,-5.11257 c 4.51717,0.005 9.03434,0.01 13.55151,0.0149 1.36507,2.44249 1.37432,6.06614 0.32145,6.74688 -1.05287,0.68074 -2.13858,1.65786 -4.30561,-0.23986 -1.21633,-1.06517 -4.24509,-3.37141 -4.82853,-3.82125 -0.58344,-0.44984 -2.23485,-1.44459 -2.63065,-0.77001 m -4.69992,-2.53034 c 3.19765,-3.19059 6.39531,-6.38118 9.5929,-9.57183 2.69235,0.76185 5.2612,3.31761 4.99806,4.54346 -0.26313,1.22585 -0.33992,2.68449 -3.21413,2.87492 -1.61327,0.10689 -5.38568,0.61779 -6.11632,0.71226 -0.73064,0.0945 -2.60176,0.55879 -2.40463,1.31567"
           style="fill:#ffffff;fill-opacity:1;stroke-width:0.264583"
           id="path1766"
           transform="matrix(-7.6550892,0,0,-7.6550892,9032.9343,4253.2574)"
           inkscape:original-d="m 900.99702,436.24555 c 0.005,-4.51717 0.01,-9.03434 0.0149,-13.55151 2.44249,-1.36507 6.06614,-1.37432 6.74688,-0.32145 0.68074,1.05287 1.65786,2.13858 -0.23986,4.30561 -1.06517,1.21633 -3.37141,4.24509 -3.82125,4.82853 -0.44984,0.58344 -1.44459,2.23485 -0.77001,2.63065"
           inkscape:path-effect="#path-effect1776"
           class="UnoptimicedTransforms"
           sodipodi:nodetypes="cczssc"
           inkscape:export-filename="Users\Bob\vect-black2.svg"
           inkscape:export-xdpi="96"
           inkscape:export-ydpi="96" /><circle
           style="fill:none;fill-opacity:1;stroke:#ffffff;stroke-width:5.99173;stroke-linecap:square;stroke-linejoin:round;stroke-dasharray:none;stroke-opacity:1;paint-order:fill markers stroke"
           id="circle1772"
           cx="2114.0679"
           cy="898.29694"
           r="29.516262" /></g><g
         id="g1833"
         transform="matrix(0.32449889,0,0,0.32449889,927.82466,523.98132)"><path
           d="m 900.99702,436.24555 c 0.005,-4.51717 0.01,-9.03434 0.0149,-13.55151 2.44249,-1.36507 6.06614,-1.37432 6.74688,-0.32145 0.68074,1.05287 1.65786,2.13858 -0.23986,4.30561 -1.06517,1.21633 -3.37141,4.24509 -3.82125,4.82853 -0.44984,0.58344 -1.44459,2.23485 -0.77001,2.63065 m -2.53034,4.69992 c -3.19059,-3.19765 -6.38118,-6.39531 -9.57183,-9.5929 0.76185,-2.69235 3.31761,-5.2612 4.54346,-4.99806 1.22585,0.26313 2.68449,0.33992 2.87492,3.21413 0.10689,1.61327 0.61779,5.38568 0.71226,6.11632 0.0945,0.73064 0.55879,2.60176 1.31567,2.40463 m 1.53412,5.11257 c -4.51717,-0.005 -9.03434,-0.01 -13.55151,-0.0149 -1.36507,-2.44249 -1.37432,-6.06614 -0.32145,-6.74688 1.05287,-0.68074 2.13858,-1.65786 4.30561,0.23986 1.21633,1.06517 4.24509,3.37141 4.82853,3.82125 0.58344,0.44984 2.23485,1.44459 2.63065,0.77001 m 4.69992,2.53034 c -3.19765,3.19059 -6.39531,6.38118 -9.5929,9.57183 -2.69235,-0.76185 -5.2612,-3.31761 -4.99806,-4.54346 0.26313,-1.22585 0.33992,-2.68449 3.21413,-2.87492 1.61327,-0.10689 5.38568,-0.61779 6.11632,-0.71226 0.73064,-0.0945 2.60176,-0.55879 2.40463,-1.31567 m 5.11257,-1.53412 c -0.005,4.51717 -0.01,9.03434 -0.0149,13.55151 -2.44249,1.36507 -6.06614,1.37432 -6.74688,0.32145 -0.68074,-1.05287 -1.65786,-2.13858 0.23986,-4.30561 1.06517,-1.21633 3.37141,-4.24509 3.82125,-4.82853 0.44984,-0.58344 1.44459,-2.23485 0.77001,-2.63065 m 2.53034,-4.69992 c 3.19059,3.19765 6.38118,6.39531 9.57183,9.5929 -0.76185,2.69235 -3.31761,5.2612 -4.54346,4.99806 -1.22585,-0.26313 -2.68449,-0.33992 -2.87492,-3.21413 -0.10689,-1.61327 -0.61779,-5.38568 -0.71226,-6.11632 -0.0945,-0.73064 -0.55879,-2.60176 -1.31567,-2.40463 m -1.53412,-5.11257 c 4.51717,0.005 9.03434,0.01 13.55151,0.0149 1.36507,2.44249 1.37432,6.06614 0.32145,6.74688 -1.05287,0.68074 -2.13858,1.65786 -4.30561,-0.23986 -1.21633,-1.06517 -4.24509,-3.37141 -4.82853,-3.82125 -0.58344,-0.44984 -2.23485,-1.44459 -2.63065,-0.77001 m -4.69992,-2.53034 c 3.19765,-3.19059 6.39531,-6.38118 9.5929,-9.57183 2.69235,0.76185 5.2612,3.31761 4.99806,4.54346 -0.26313,1.22585 -0.33992,2.68449 -3.21413,2.87492 -1.61327,0.10689 -5.38568,0.61779 -6.11632,0.71226 -0.73064,0.0945 -2.60176,0.55879 -2.40463,1.31567"
           style="fill:#ffffff;fill-opacity:1;stroke-width:0.264583"
           id="path1829"
           transform="matrix(-7.6550892,0,0,-7.6550892,9032.9343,4253.2574)"
           inkscape:original-d="m 900.99702,436.24555 c 0.005,-4.51717 0.01,-9.03434 0.0149,-13.55151 2.44249,-1.36507 6.06614,-1.37432 6.74688,-0.32145 0.68074,1.05287 1.65786,2.13858 -0.23986,4.30561 -1.06517,1.21633 -3.37141,4.24509 -3.82125,4.82853 -0.44984,0.58344 -1.44459,2.23485 -0.77001,2.63065"
           inkscape:path-effect="#path-effect1837"
           class="UnoptimicedTransforms"
           sodipodi:nodetypes="cczssc"
           inkscape:export-filename="Users\Bob\vect-black2.svg"
           inkscape:export-xdpi="96"
           inkscape:export-ydpi="96" /><circle
           style="fill:none;fill-opacity:1;stroke:#ffffff;stroke-width:5.99173;stroke-linecap:square;stroke-linejoin:round;stroke-dasharray:none;stroke-opacity:1;paint-order:fill markers stroke"
           id="circle1831"
           cx="2114.0679"
           cy="898.29694"
           r="29.516262" /></g><g
         id="g1843"
         transform="matrix(0.39486359,0,0,0.39486359,655.35598,670.99589)"><path
           d="m 900.99702,436.24555 c 0.005,-4.51717 0.01,-9.03434 0.0149,-13.55151 2.44249,-1.36507 6.06614,-1.37432 6.74688,-0.32145 0.68074,1.05287 1.65786,2.13858 -0.23986,4.30561 -1.06517,1.21633 -3.37141,4.24509 -3.82125,4.82853 -0.44984,0.58344 -1.44459,2.23485 -0.77001,2.63065 m -2.53034,4.69992 c -3.19059,-3.19765 -6.38118,-6.39531 -9.57183,-9.5929 0.76185,-2.69235 3.31761,-5.2612 4.54346,-4.99806 1.22585,0.26313 2.68449,0.33992 2.87492,3.21413 0.10689,1.61327 0.61779,5.38568 0.71226,6.11632 0.0945,0.73064 0.55879,2.60176 1.31567,2.40463 m 1.53412,5.11257 c -4.51717,-0.005 -9.03434,-0.01 -13.55151,-0.0149 -1.36507,-2.44249 -1.37432,-6.06614 -0.32145,-6.74688 1.05287,-0.68074 2.13858,-1.65786 4.30561,0.23986 1.21633,1.06517 4.24509,3.37141 4.82853,3.82125 0.58344,0.44984 2.23485,1.44459 2.63065,0.77001 m 4.69992,2.53034 c -3.19765,3.19059 -6.39531,6.38118 -9.5929,9.57183 -2.69235,-0.76185 -5.2612,-3.31761 -4.99806,-4.54346 0.26313,-1.22585 0.33992,-2.68449 3.21413,-2.87492 1.61327,-0.10689 5.38568,-0.61779 6.11632,-0.71226 0.73064,-0.0945 2.60176,-0.55879 2.40463,-1.31567 m 5.11257,-1.53412 c -0.005,4.51717 -0.01,9.03434 -0.0149,13.55151 -2.44249,1.36507 -6.06614,1.37432 -6.74688,0.32145 -0.68074,-1.05287 -1.65786,-2.13858 0.23986,-4.30561 1.06517,-1.21633 3.37141,-4.24509 3.82125,-4.82853 0.44984,-0.58344 1.44459,-2.23485 0.77001,-2.63065 m 2.53034,-4.69992 c 3.19059,3.19765 6.38118,6.39531 9.57183,9.5929 -0.76185,2.69235 -3.31761,5.2612 -4.54346,4.99806 -1.22585,-0.26313 -2.68449,-0.33992 -2.87492,-3.21413 -0.10689,-1.61327 -0.61779,-5.38568 -0.71226,-6.11632 -0.0945,-0.73064 -0.55879,-2.60176 -1.31567,-2.40463 m -1.53412,-5.11257 c 4.51717,0.005 9.03434,0.01 13.55151,0.0149 1.36507,2.44249 1.37432,6.06614 0.32145,6.74688 -1.05287,0.68074 -2.13858,1.65786 -4.30561,-0.23986 -1.21633,-1.06517 -4.24509,-3.37141 -4.82853,-3.82125 -0.58344,-0.44984 -2.23485,-1.44459 -2.63065,-0.77001 m -4.69992,-2.53034 c 3.19765,-3.19059 6.39531,-6.38118 9.5929,-9.57183 2.69235,0.76185 5.2612,3.31761 4.99806,4.54346 -0.26313,1.22585 -0.33992,2.68449 -3.21413,2.87492 -1.61327,0.10689 -5.38568,0.61779 -6.11632,0.71226 -0.73064,0.0945 -2.60176,0.55879 -2.40463,1.31567"
           style="fill:#ffffff;fill-opacity:1;stroke-width:0.264583"
           id="path1839"
           transform="matrix(-7.6550892,0,0,-7.6550892,9032.9343,4253.2574)"
           inkscape:original-d="m 900.99702,436.24555 c 0.005,-4.51717 0.01,-9.03434 0.0149,-13.55151 2.44249,-1.36507 6.06614,-1.37432 6.74688,-0.32145 0.68074,1.05287 1.65786,2.13858 -0.23986,4.30561 -1.06517,1.21633 -3.37141,4.24509 -3.82125,4.82853 -0.44984,0.58344 -1.44459,2.23485 -0.77001,2.63065"
           inkscape:path-effect="#path-effect1847"
           class="UnoptimicedTransforms"
           sodipodi:nodetypes="cczssc"
           inkscape:export-filename="Users\Bob\vect-black2.svg"
           inkscape:export-xdpi="96"
           inkscape:export-ydpi="96" /><circle
           style="fill:none;fill-opacity:1;stroke:#ffffff;stroke-width:5.99173;stroke-linecap:square;stroke-linejoin:round;stroke-dasharray:none;stroke-opacity:1;paint-order:fill markers stroke"
           id="circle1841"
           cx="2114.0679"
           cy="898.29694"
           r="29.516262" /></g><g
         id="g1853"
         transform="matrix(0.16969655,0,0,0.16969655,876.6721,618.45593)"><path
           d="m 900.99702,436.24555 c 0.005,-4.51717 0.01,-9.03434 0.0149,-13.55151 2.44249,-1.36507 6.06614,-1.37432 6.74688,-0.32145 0.68074,1.05287 1.65786,2.13858 -0.23986,4.30561 -1.06517,1.21633 -3.37141,4.24509 -3.82125,4.82853 -0.44984,0.58344 -1.44459,2.23485 -0.77001,2.63065 m -2.53034,4.69992 c -3.19059,-3.19765 -6.38118,-6.39531 -9.57183,-9.5929 0.76185,-2.69235 3.31761,-5.2612 4.54346,-4.99806 1.22585,0.26313 2.68449,0.33992 2.87492,3.21413 0.10689,1.61327 0.61779,5.38568 0.71226,6.11632 0.0945,0.73064 0.55879,2.60176 1.31567,2.40463 m 1.53412,5.11257 c -4.51717,-0.005 -9.03434,-0.01 -13.55151,-0.0149 -1.36507,-2.44249 -1.37432,-6.06614 -0.32145,-6.74688 1.05287,-0.68074 2.13858,-1.65786 4.30561,0.23986 1.21633,1.06517 4.24509,3.37141 4.82853,3.82125 0.58344,0.44984 2.23485,1.44459 2.63065,0.77001 m 4.69992,2.53034 c -3.19765,3.19059 -6.39531,6.38118 -9.5929,9.57183 -2.69235,-0.76185 -5.2612,-3.31761 -4.99806,-4.54346 0.26313,-1.22585 0.33992,-2.68449 3.21413,-2.87492 1.61327,-0.10689 5.38568,-0.61779 6.11632,-0.71226 0.73064,-0.0945 2.60176,-0.55879 2.40463,-1.31567 m 5.11257,-1.53412 c -0.005,4.51717 -0.01,9.03434 -0.0149,13.55151 -2.44249,1.36507 -6.06614,1.37432 -6.74688,0.32145 -0.68074,-1.05287 -1.65786,-2.13858 0.23986,-4.30561 1.06517,-1.21633 3.37141,-4.24509 3.82125,-4.82853 0.44984,-0.58344 1.44459,-2.23485 0.77001,-2.63065 m 2.53034,-4.69992 c 3.19059,3.19765 6.38118,6.39531 9.57183,9.5929 -0.76185,2.69235 -3.31761,5.2612 -4.54346,4.99806 -1.22585,-0.26313 -2.68449,-0.33992 -2.87492,-3.21413 -0.10689,-1.61327 -0.61779,-5.38568 -0.71226,-6.11632 -0.0945,-0.73064 -0.55879,-2.60176 -1.31567,-2.40463 m -1.53412,-5.11257 c 4.51717,0.005 9.03434,0.01 13.55151,0.0149 1.36507,2.44249 1.37432,6.06614 0.32145,6.74688 -1.05287,0.68074 -2.13858,1.65786 -4.30561,-0.23986 -1.21633,-1.06517 -4.24509,-3.37141 -4.82853,-3.82125 -0.58344,-0.44984 -2.23485,-1.44459 -2.63065,-0.77001 m -4.69992,-2.53034 c 3.19765,-3.19059 6.39531,-6.38118 9.5929,-9.57183 2.69235,0.76185 5.2612,3.31761 4.99806,4.54346 -0.26313,1.22585 -0.33992,2.68449 -3.21413,2.87492 -1.61327,0.10689 -5.38568,0.61779 -6.11632,0.71226 -0.73064,0.0945 -2.60176,0.55879 -2.40463,1.31567"
           style="fill:#ffffff;fill-opacity:1;stroke-width:0.264583"
           id="path1849"
           transform="matrix(-7.6550892,0,0,-7.6550892,9032.9343,4253.2574)"
           inkscape:original-d="m 900.99702,436.24555 c 0.005,-4.51717 0.01,-9.03434 0.0149,-13.55151 2.44249,-1.36507 6.06614,-1.37432 6.74688,-0.32145 0.68074,1.05287 1.65786,2.13858 -0.23986,4.30561 -1.06517,1.21633 -3.37141,4.24509 -3.82125,4.82853 -0.44984,0.58344 -1.44459,2.23485 -0.77001,2.63065"
           inkscape:path-effect="#path-effect1857"
           class="UnoptimicedTransforms"
           sodipodi:nodetypes="cczssc"
           inkscape:export-filename="Users\Bob\vect-black2.svg"
           inkscape:export-xdpi="96"
           inkscape:export-ydpi="96" /><circle
           style="fill:none;fill-opacity:1;stroke:#ffffff;stroke-width:5.99173;stroke-linecap:square;stroke-linejoin:round;stroke-dasharray:none;stroke-opacity:1;paint-order:fill markers stroke"
           id="circle1851"
           cx="2114.0679"
           cy="898.29694"
           r="29.516262" /></g><g
         id="g2028"
         transform="translate(0,115.36988)"
         inkscape:export-filename="g2028.svg"
         inkscape:export-xdpi="96"
         inkscape:export-ydpi="96"><path
           d="m 900.99702,436.24555 c 0.005,-4.51717 0.01,-9.03434 0.0149,-13.55151 2.44249,-1.36507 6.06614,-1.37432 6.74688,-0.32145 0.68074,1.05287 1.65786,2.13858 -0.23986,4.30561 -1.06517,1.21633 -3.37141,4.24509 -3.82125,4.82853 -0.44984,0.58344 -1.44459,2.23485 -0.77001,2.63065 m -2.53034,4.69992 c -3.19059,-3.19765 -6.38118,-6.39531 -9.57183,-9.5929 0.76185,-2.69235 3.31761,-5.2612 4.54346,-4.99806 1.22585,0.26313 2.68449,0.33992 2.87492,3.21413 0.10689,1.61327 0.61779,5.38568 0.71226,6.11632 0.0945,0.73064 0.55879,2.60176 1.31567,2.40463 m 1.53412,5.11257 c -4.51717,-0.005 -9.03434,-0.01 -13.55151,-0.0149 -1.36507,-2.44249 -1.37432,-6.06614 -0.32145,-6.74688 1.05287,-0.68074 2.13858,-1.65786 4.30561,0.23986 1.21633,1.06517 4.24509,3.37141 4.82853,3.82125 0.58344,0.44984 2.23485,1.44459 2.63065,0.77001 m 4.69992,2.53034 c -3.19765,3.19059 -6.39531,6.38118 -9.5929,9.57183 -2.69235,-0.76185 -5.2612,-3.31761 -4.99806,-4.54346 0.26313,-1.22585 0.33992,-2.68449 3.21413,-2.87492 1.61327,-0.10689 5.38568,-0.61779 6.11632,-0.71226 0.73064,-0.0945 2.60176,-0.55879 2.40463,-1.31567 m 5.11257,-1.53412 c -0.005,4.51717 -0.01,9.03434 -0.0149,13.55151 -2.44249,1.36507 -6.06614,1.37432 -6.74688,0.32145 -0.68074,-1.05287 -1.65786,-2.13858 0.23986,-4.30561 1.06517,-1.21633 3.37141,-4.24509 3.82125,-4.82853 0.44984,-0.58344 1.44459,-2.23485 0.77001,-2.63065 m 2.53034,-4.69992 c 3.19059,3.19765 6.38118,6.39531 9.57183,9.5929 -0.76185,2.69235 -3.31761,5.2612 -4.54346,4.99806 -1.22585,-0.26313 -2.68449,-0.33992 -2.87492,-3.21413 -0.10689,-1.61327 -0.61779,-5.38568 -0.71226,-6.11632 -0.0945,-0.73064 -0.55879,-2.60176 -1.31567,-2.40463 m -1.53412,-5.11257 c 4.51717,0.005 9.03434,0.01 13.55151,0.0149 1.36507,2.44249 1.37432,6.06614 0.32145,6.74688 -1.05287,0.68074 -2.13858,1.65786 -4.30561,-0.23986 -1.21633,-1.06517 -4.24509,-3.37141 -4.82853,-3.82125 -0.58344,-0.44984 -2.23485,-1.44459 -2.63065,-0.77001 m -4.69992,-2.53034 c 3.19765,-3.19059 6.39531,-6.38118 9.5929,-9.57183 2.69235,0.76185 5.2612,3.31761 4.99806,4.54346 -0.26313,1.22585 -0.33992,2.68449 -3.21413,2.87492 -1.61327,0.10689 -5.38568,0.61779 -6.11632,0.71226 -0.73064,0.0945 -2.60176,0.55879 -2.40463,1.31567"
           style="fill:#ffffff;fill-opacity:1;stroke-width:0.264583"
           id="path2024"
           transform="matrix(-1.115682,0,0,-1.115682,1919.3867,1165.0504)"
           inkscape:original-d="m 900.99702,436.24555 c 0.005,-4.51717 0.01,-9.03434 0.0149,-13.55151 2.44249,-1.36507 6.06614,-1.37432 6.74688,-0.32145 0.68074,1.05287 1.65786,2.13858 -0.23986,4.30561 -1.06517,1.21633 -3.37141,4.24509 -3.82125,4.82853 -0.44984,0.58344 -1.44459,2.23485 -0.77001,2.63065"
           inkscape:path-effect="#path-effect2032"
           class="UnoptimicedTransforms"
           sodipodi:nodetypes="cczssc"
           inkscape:export-filename="Users\Bob\vect-black2.svg"
           inkscape:export-xdpi="96"
           inkscape:export-ydpi="96" /><circle
           style="fill:none;fill-opacity:1;stroke:#ffffff;stroke-width:0.873258;stroke-linecap:square;stroke-linejoin:round;stroke-dasharray:none;stroke-opacity:1;paint-order:fill markers stroke"
           id="circle2026"
           cx="911.0047"
           cy="676.08557"
           r="4.3018131" /></g></g></g></svg>
