<?xml version="1.0" encoding="UTF-8" standalone="no"?>
<!-- Created with Inkscape (http://www.inkscape.org/) -->

<svg
   width="96.359436mm"
   height="11.136963mm"
   viewBox="0 0 96.359436 11.136963"
   version="1.1"
   id="svg5"
   xml:space="preserve"
   sodipodi:docname="hyper.svg"
   inkscape:version="1.2.1 (9c6d41e410, 2022-07-14)"
   xmlns:inkscape="http://www.inkscape.org/namespaces/inkscape"
   xmlns:sodipodi="http://sodipodi.sourceforge.net/DTD/sodipodi-0.dtd"
   xmlns="http://www.w3.org/2000/svg"
   xmlns:svg="http://www.w3.org/2000/svg"><sodipodi:namedview
     id="namedview7"
     pagecolor="#ffffff"
     bordercolor="#666666"
     borderopacity="1.0"
     inkscape:showpageshadow="2"
     inkscape:pageopacity="0.0"
     inkscape:pagecheckerboard="0"
     inkscape:deskcolor="#d1d1d1"
     inkscape:document-units="mm"
     showgrid="false"
     inkscape:zoom="0.83477885"
     inkscape:cx="3417.6716"
     inkscape:cy="2907.9558"
     inkscape:window-width="2067"
     inkscape:window-height="1259"
     inkscape:window-x="311"
     inkscape:window-y="40"
     inkscape:window-maximized="0"
     inkscape:current-layer="path3904" /><defs
     id="defs2"><inkscape:path-effect
       origin="903.8257,438.26531"
       starting_point="1003.8257,438.26531"
       effect="copy_rotate"
       id="path-effect2918"
       is_visible="true"
       lpeversion="1.2"
       lpesatellites=""
       method="normal"
       num_copies="8"
       starting_angle="0"
       rotation_angle="45"
       gap="-0.01"
       copies_to_360="true"
       mirror_copies="false"
       split_items="false"
       link_styles="false" /><inkscape:path-effect
       origin="903.8257,438.26531"
       starting_point="1003.8257,438.26531"
       effect="copy_rotate"
       id="path-effect2032"
       is_visible="true"
       lpeversion="1.2"
       lpesatellites=""
       method="normal"
       num_copies="8"
       starting_angle="0"
       rotation_angle="45"
       gap="-0.01"
       copies_to_360="true"
       mirror_copies="false"
       split_items="false"
       link_styles="false" /><inkscape:path-effect
       origin="903.8257,438.26531"
       starting_point="1003.8257,438.26531"
       effect="copy_rotate"
       id="path-effect1857"
       is_visible="true"
       lpeversion="1.2"
       lpesatellites=""
       method="normal"
       num_copies="8"
       starting_angle="0"
       rotation_angle="45"
       gap="-0.01"
       copies_to_360="true"
       mirror_copies="false"
       split_items="false"
       link_styles="false" /><inkscape:path-effect
       origin="903.8257,438.26531"
       starting_point="1003.8257,438.26531"
       effect="copy_rotate"
       id="path-effect1847"
       is_visible="true"
       lpeversion="1.2"
       lpesatellites=""
       method="normal"
       num_copies="8"
       starting_angle="0"
       rotation_angle="45"
       gap="-0.01"
       copies_to_360="true"
       mirror_copies="false"
       split_items="false"
       link_styles="false" /><inkscape:path-effect
       origin="903.8257,438.26531"
       starting_point="1003.8257,438.26531"
       effect="copy_rotate"
       id="path-effect1837"
       is_visible="true"
       lpeversion="1.2"
       lpesatellites=""
       method="normal"
       num_copies="8"
       starting_angle="0"
       rotation_angle="45"
       gap="-0.01"
       copies_to_360="true"
       mirror_copies="false"
       split_items="false"
       link_styles="false" /><inkscape:path-effect
       origin="903.8257,438.26531"
       starting_point="1003.8257,438.26531"
       effect="copy_rotate"
       id="path-effect1776"
       is_visible="true"
       lpeversion="1.2"
       lpesatellites=""
       method="normal"
       num_copies="8"
       starting_angle="0"
       rotation_angle="45"
       gap="-0.01"
       copies_to_360="true"
       mirror_copies="false"
       split_items="false"
       link_styles="false" /><inkscape:path-effect
       origin="903.8257,438.26531"
       starting_point="1003.8257,438.26531"
       effect="copy_rotate"
       id="path-effect1560"
       is_visible="true"
       lpeversion="1.2"
       lpesatellites=""
       method="normal"
       num_copies="8"
       starting_angle="0"
       rotation_angle="45"
       gap="-0.01"
       copies_to_360="true"
       mirror_copies="false"
       split_items="false"
       link_styles="false" /><inkscape:path-effect
       origin="903.8257,438.26531"
       starting_point="1003.8257,438.26531"
       effect="copy_rotate"
       id="path-effect1492"
       is_visible="true"
       lpeversion="1.2"
       lpesatellites=""
       method="normal"
       num_copies="8"
       starting_angle="0"
       rotation_angle="45"
       gap="-0.01"
       copies_to_360="true"
       mirror_copies="false"
       split_items="false"
       link_styles="false" /><inkscape:path-effect
       origin="903.8257,438.26531"
       starting_point="1003.8257,438.26531"
       effect="copy_rotate"
       id="path-effect1160"
       is_visible="true"
       lpeversion="1.2"
       lpesatellites=""
       method="normal"
       num_copies="8"
       starting_angle="0"
       rotation_angle="45"
       gap="-0.01"
       copies_to_360="true"
       mirror_copies="false"
       split_items="false"
       link_styles="false" /><inkscape:path-effect
       origin="903.8257,438.26531"
       starting_point="1003.8257,438.26531"
       effect="copy_rotate"
       id="path-effect1160-2"
       is_visible="true"
       lpeversion="1.2"
       lpesatellites=""
       method="normal"
       num_copies="8"
       starting_angle="0"
       rotation_angle="45"
       gap="-0.01"
       copies_to_360="true"
       mirror_copies="false"
       split_items="false"
       link_styles="false" /></defs><g
     inkscape:label="Layer 1"
     inkscape:groupmode="layer"
     id="layer1"
     transform="translate(-833.21383,-813.8137)"><g
       id="g1156"
       transform="translate(65.442352,46.49553)"><text
         xml:space="preserve"
         style="font-style:normal;font-variant:normal;font-weight:normal;font-stretch:normal;font-size:6.16779px;line-height:1.25;font-family:'Stretch Pro';-inkscape-font-specification:'Stretch Pro, @wght=400';font-variant-ligatures:normal;font-variant-caps:normal;font-variant-numeric:normal;font-variant-east-asian:normal;font-variation-settings:'wght' 400;letter-spacing:0.193175px;fill:#ffffff;fill-opacity:1;stroke:#ffffff;stroke-width:0.0782264;stroke-dasharray:none;stroke-opacity:1"
         x="881.06873"
         y="702.54907"
         id="text1152"><tspan
           sodipodi:role="line"
           id="tspan1150"
           style="font-style:normal;font-variant:normal;font-weight:normal;font-stretch:normal;font-size:6.16779px;font-family:'Stretch Pro';-inkscape-font-specification:'Stretch Pro, @wght=400';font-variant-ligatures:normal;font-variant-caps:normal;font-variant-numeric:normal;font-variant-east-asian:normal;font-variation-settings:'wght' 400;fill:#ffffff;fill-opacity:1;stroke:#ffffff;stroke-width:0.0782264;stroke-dasharray:none;stroke-opacity:1"
           x="881.06873"
           y="702.54907">Hypertensor</tspan></text><g
         id="g2022"><path
           d="m 900.99702,436.24555 c 0.005,-4.51717 0.01,-9.03434 0.0149,-13.55151 2.44249,-1.36507 6.06614,-1.37432 6.74688,-0.32145 0.68074,1.05287 1.65786,2.13858 -0.23986,4.30561 -1.06517,1.21633 -3.37141,4.24509 -3.82125,4.82853 -0.44984,0.58344 -1.44459,2.23485 -0.77001,2.63065 m -2.53034,4.69992 c -3.19059,-3.19765 -6.38118,-6.39531 -9.57183,-9.5929 0.76185,-2.69235 3.31761,-5.2612 4.54346,-4.99806 1.22585,0.26313 2.68449,0.33992 2.87492,3.21413 0.10689,1.61327 0.61779,5.38568 0.71226,6.11632 0.0945,0.73064 0.55879,2.60176 1.31567,2.40463 m 1.53412,5.11257 c -4.51717,-0.005 -9.03434,-0.01 -13.55151,-0.0149 -1.36507,-2.44249 -1.37432,-6.06614 -0.32145,-6.74688 1.05287,-0.68074 2.13858,-1.65786 4.30561,0.23986 1.21633,1.06517 4.24509,3.37141 4.82853,3.82125 0.58344,0.44984 2.23485,1.44459 2.63065,0.77001 m 4.69992,2.53034 c -3.19765,3.19059 -6.39531,6.38118 -9.5929,9.57183 -2.69235,-0.76185 -5.2612,-3.31761 -4.99806,-4.54346 0.26313,-1.22585 0.33992,-2.68449 3.21413,-2.87492 1.61327,-0.10689 5.38568,-0.61779 6.11632,-0.71226 0.73064,-0.0945 2.60176,-0.55879 2.40463,-1.31567 m 5.11257,-1.53412 c -0.005,4.51717 -0.01,9.03434 -0.0149,13.55151 -2.44249,1.36507 -6.06614,1.37432 -6.74688,0.32145 -0.68074,-1.05287 -1.65786,-2.13858 0.23986,-4.30561 1.06517,-1.21633 3.37141,-4.24509 3.82125,-4.82853 0.44984,-0.58344 1.44459,-2.23485 0.77001,-2.63065 m 2.53034,-4.69992 c 3.19059,3.19765 6.38118,6.39531 9.57183,9.5929 -0.76185,2.69235 -3.31761,5.2612 -4.54346,4.99806 -1.22585,-0.26313 -2.68449,-0.33992 -2.87492,-3.21413 -0.10689,-1.61327 -0.61779,-5.38568 -0.71226,-6.11632 -0.0945,-0.73064 -0.55879,-2.60176 -1.31567,-2.40463 m -1.53412,-5.11257 c 4.51717,0.005 9.03434,0.01 13.55151,0.0149 1.36507,2.44249 1.37432,6.06614 0.32145,6.74688 -1.05287,0.68074 -2.13858,1.65786 -4.30561,-0.23986 -1.21633,-1.06517 -4.24509,-3.37141 -4.82853,-3.82125 -0.58344,-0.44984 -2.23485,-1.44459 -2.63065,-0.77001 m -4.69992,-2.53034 c 3.19765,-3.19059 6.39531,-6.38118 9.5929,-9.57183 2.69235,0.76185 5.2612,3.31761 4.99806,4.54346 -0.26313,1.22585 -0.33992,2.68449 -3.21413,2.87492 -1.61327,0.10689 -5.38568,0.61779 -6.11632,0.71226 -0.73064,0.0945 -2.60176,0.55879 -2.40463,1.31567"
           style="fill:#ffffff;fill-opacity:1;stroke-width:0.264583"
           id="path1148"
           transform="matrix(-1.115682,0,0,-1.115682,1919.3867,1165.0504)"
           inkscape:original-d="m 900.99702,436.24555 c 0.005,-4.51717 0.01,-9.03434 0.0149,-13.55151 2.44249,-1.36507 6.06614,-1.37432 6.74688,-0.32145 0.68074,1.05287 1.65786,2.13858 -0.23986,4.30561 -1.06517,1.21633 -3.37141,4.24509 -3.82125,4.82853 -0.44984,0.58344 -1.44459,2.23485 -0.77001,2.63065"
           inkscape:path-effect="#path-effect1160"
           class="UnoptimicedTransforms"
           sodipodi:nodetypes="cczssc"
           inkscape:export-filename="Users\Bob\vect-black2.svg"
           inkscape:export-xdpi="96"
           inkscape:export-ydpi="96" /><circle
           style="fill:none;fill-opacity:1;stroke:#ffffff;stroke-width:0.873258;stroke-linecap:square;stroke-linejoin:round;stroke-dasharray:none;stroke-opacity:1;paint-order:fill markers stroke"
           id="circle1154"
           cx="911.0047"
           cy="676.08557"
           r="4.3018131" /></g><g
         id="g1351"
         transform="matrix(1.0584243,0,0,1.0584243,-43.217627,-51.502099)"><path
           d="m 900.99702,436.24555 c 0.005,-4.51717 0.01,-9.03434 0.0149,-13.55151 2.44249,-1.36507 6.06614,-1.37432 6.74688,-0.32145 0.68074,1.05287 1.65786,2.13858 -0.23986,4.30561 -1.06517,1.21633 -3.37141,4.24509 -3.82125,4.82853 -0.44984,0.58344 -1.44459,2.23485 -0.77001,2.63065 m -2.53034,4.69992 c -3.19059,-3.19765 -6.38118,-6.39531 -9.57183,-9.5929 0.76185,-2.69235 3.31761,-5.2612 4.54346,-4.99806 1.22585,0.26313 2.68449,0.33992 2.87492,3.21413 0.10689,1.61327 0.61779,5.38568 0.71226,6.11632 0.0945,0.73064 0.55879,2.60176 1.31567,2.40463 m 1.53412,5.11257 c -4.51717,-0.005 -9.03434,-0.01 -13.55151,-0.0149 -1.36507,-2.44249 -1.37432,-6.06614 -0.32145,-6.74688 1.05287,-0.68074 2.13858,-1.65786 4.30561,0.23986 1.21633,1.06517 4.24509,3.37141 4.82853,3.82125 0.58344,0.44984 2.23485,1.44459 2.63065,0.77001 m 4.69992,2.53034 c -3.19765,3.19059 -6.39531,6.38118 -9.5929,9.57183 -2.69235,-0.76185 -5.2612,-3.31761 -4.99806,-4.54346 0.26313,-1.22585 0.33992,-2.68449 3.21413,-2.87492 1.61327,-0.10689 5.38568,-0.61779 6.11632,-0.71226 0.73064,-0.0945 2.60176,-0.55879 2.40463,-1.31567 m 5.11257,-1.53412 c -0.005,4.51717 -0.01,9.03434 -0.0149,13.55151 -2.44249,1.36507 -6.06614,1.37432 -6.74688,0.32145 -0.68074,-1.05287 -1.65786,-2.13858 0.23986,-4.30561 1.06517,-1.21633 3.37141,-4.24509 3.82125,-4.82853 0.44984,-0.58344 1.44459,-2.23485 0.77001,-2.63065 m 2.53034,-4.69992 c 3.19059,3.19765 6.38118,6.39531 9.57183,9.5929 -0.76185,2.69235 -3.31761,5.2612 -4.54346,4.99806 -1.22585,-0.26313 -2.68449,-0.33992 -2.87492,-3.21413 -0.10689,-1.61327 -0.61779,-5.38568 -0.71226,-6.11632 -0.0945,-0.73064 -0.55879,-2.60176 -1.31567,-2.40463 m -1.53412,-5.11257 c 4.51717,0.005 9.03434,0.01 13.55151,0.0149 1.36507,2.44249 1.37432,6.06614 0.32145,6.74688 -1.05287,0.68074 -2.13858,1.65786 -4.30561,-0.23986 -1.21633,-1.06517 -4.24509,-3.37141 -4.82853,-3.82125 -0.58344,-0.44984 -2.23485,-1.44459 -2.63065,-0.77001 m -4.69992,-2.53034 c 3.19765,-3.19059 6.39531,-6.38118 9.5929,-9.57183 2.69235,0.76185 5.2612,3.31761 4.99806,4.54346 -0.26313,1.22585 -0.33992,2.68449 -3.21413,2.87492 -1.61327,0.10689 -5.38568,0.61779 -6.11632,0.71226 -0.73064,0.0945 -2.60176,0.55879 -2.40463,1.31567"
           style="fill:#ffffff;fill-opacity:1;stroke-width:0.264583"
           id="path1148-6"
           transform="matrix(-0.78104606,0,0,-0.78104606,1656.6295,963.83986)"
           inkscape:original-d="m 900.99702,436.24555 c 0.005,-4.51717 0.01,-9.03434 0.0149,-13.55151 2.44249,-1.36507 6.06614,-1.37432 6.74688,-0.32145 0.68074,1.05287 1.65786,2.13858 -0.23986,4.30561 -1.06517,1.21633 -3.37141,4.24509 -3.82125,4.82853 -0.44984,0.58344 -1.44459,2.23485 -0.77001,2.63065"
           inkscape:path-effect="#path-effect1160-2"
           class="UnoptimicedTransforms"
           sodipodi:nodetypes="cczssc"
           inkscape:export-filename="Users\Bob\vect-black2.svg"
           inkscape:export-xdpi="96"
           inkscape:export-ydpi="96" /><text
           xml:space="preserve"
           style="font-style:normal;font-variant:normal;font-weight:normal;font-stretch:normal;font-size:4.31783px;line-height:1.25;font-family:'Stretch Pro';-inkscape-font-specification:'Stretch Pro, @wght=400';font-variant-ligatures:normal;font-variant-caps:normal;font-variant-numeric:normal;font-variant-east-asian:normal;font-variation-settings:'wght' 400;letter-spacing:0.135234px;fill:#ffffff;fill-opacity:1;stroke:#ffffff;stroke-width:0.0547633;stroke-dasharray:none;stroke-opacity:1"
           x="929.74298"
           y="640.06055"
           id="text1152-5"><tspan
             sodipodi:role="line"
             id="tspan1150-5"
             style="font-style:normal;font-variant:normal;font-weight:normal;font-stretch:normal;font-size:4.31783px;font-family:'Stretch Pro';-inkscape-font-specification:'Stretch Pro, @wght=400';font-variant-ligatures:normal;font-variant-caps:normal;font-variant-numeric:normal;font-variant-east-asian:normal;font-variation-settings:'wght' 400;fill:#ffffff;fill-opacity:1;stroke:#ffffff;stroke-width:0.0547633;stroke-dasharray:none;stroke-opacity:1"
             x="929.74298"
             y="640.06055">Hypertensor</tspan></text><circle
           style="fill:none;fill-opacity:1;stroke:#ffffff;stroke-width:0.611334;stroke-linecap:square;stroke-linejoin:round;stroke-dasharray:none;stroke-opacity:1;paint-order:fill markers stroke"
           id="circle1154-9"
           cx="950.70001"
           cy="621.53442"
           r="3.011534" /><path
           d="m 900.99702,436.24555 c 0.005,-4.51717 0.01,-9.03434 0.0149,-13.55151 2.44249,-1.36507 6.06614,-1.37432 6.74688,-0.32145 0.68074,1.05287 1.65786,2.13858 -0.23986,4.30561 -1.06517,1.21633 -3.37141,4.24509 -3.82125,4.82853 -0.44984,0.58344 -1.44459,2.23485 -0.77001,2.63065 m -2.53034,4.69992 c -3.19059,-3.19765 -6.38118,-6.39531 -9.57183,-9.5929 0.76185,-2.69235 3.31761,-5.2612 4.54346,-4.99806 1.22585,0.26313 2.68449,0.33992 2.87492,3.21413 0.10689,1.61327 0.61779,5.38568 0.71226,6.11632 0.0945,0.73064 0.55879,2.60176 1.31567,2.40463 m 1.53412,5.11257 c -4.51717,-0.005 -9.03434,-0.01 -13.55151,-0.0149 -1.36507,-2.44249 -1.37432,-6.06614 -0.32145,-6.74688 1.05287,-0.68074 2.13858,-1.65786 4.30561,0.23986 1.21633,1.06517 4.24509,3.37141 4.82853,3.82125 0.58344,0.44984 2.23485,1.44459 2.63065,0.77001 m 4.69992,2.53034 c -3.19765,3.19059 -6.39531,6.38118 -9.5929,9.57183 -2.69235,-0.76185 -5.2612,-3.31761 -4.99806,-4.54346 0.26313,-1.22585 0.33992,-2.68449 3.21413,-2.87492 1.61327,-0.10689 5.38568,-0.61779 6.11632,-0.71226 0.73064,-0.0945 2.60176,-0.55879 2.40463,-1.31567 m 5.11257,-1.53412 c -0.005,4.51717 -0.01,9.03434 -0.0149,13.55151 -2.44249,1.36507 -6.06614,1.37432 -6.74688,0.32145 -0.68074,-1.05287 -1.65786,-2.13858 0.23986,-4.30561 1.06517,-1.21633 3.37141,-4.24509 3.82125,-4.82853 0.44984,-0.58344 1.44459,-2.23485 0.77001,-2.63065 m 2.53034,-4.69992 c 3.19059,3.19765 6.38118,6.39531 9.57183,9.5929 -0.76185,2.69235 -3.31761,5.2612 -4.54346,4.99806 -1.22585,-0.26313 -2.68449,-0.33992 -2.87492,-3.21413 -0.10689,-1.61327 -0.61779,-5.38568 -0.71226,-6.11632 -0.0945,-0.73064 -0.55879,-2.60176 -1.31567,-2.40463 m -1.53412,-5.11257 c 4.51717,0.005 9.03434,0.01 13.55151,0.0149 1.36507,2.44249 1.37432,6.06614 0.32145,6.74688 -1.05287,0.68074 -2.13858,1.65786 -4.30561,-0.23986 -1.21633,-1.06517 -4.24509,-3.37141 -4.82853,-3.82125 -0.58344,-0.44984 -2.23485,-1.44459 -2.63065,-0.77001 m -4.69992,-2.53034 c 3.19765,-3.19059 6.39531,-6.38118 9.5929,-9.57183 2.69235,0.76185 5.2612,3.31761 4.99806,4.54346 -0.26313,1.22585 -0.33992,2.68449 -3.21413,2.87492 -1.61327,0.10689 -5.38568,0.61779 -6.11632,0.71226 -0.73064,0.0945 -2.60176,0.55879 -2.40463,1.31567"
           style="fill:#ffffff;fill-opacity:1;stroke-width:0.264583"
           id="path1488"
           transform="matrix(-0.78104606,0,0,-0.78104606,1656.6295,963.83986)"
           inkscape:original-d="m 900.99702,436.24555 c 0.005,-4.51717 0.01,-9.03434 0.0149,-13.55151 2.44249,-1.36507 6.06614,-1.37432 6.74688,-0.32145 0.68074,1.05287 1.65786,2.13858 -0.23986,4.30561 -1.06517,1.21633 -3.37141,4.24509 -3.82125,4.82853 -0.44984,0.58344 -1.44459,2.23485 -0.77001,2.63065"
           inkscape:path-effect="#path-effect1492"
           class="UnoptimicedTransforms"
           sodipodi:nodetypes="cczssc"
           inkscape:export-filename="Users\Bob\vect-black2.svg"
           inkscape:export-xdpi="96"
           inkscape:export-ydpi="96" /></g><g
         id="g1556"
         transform="matrix(1.0584243,0,0,1.0584243,17.478339,-31.375761)"><g
           id="g1568"
           transform="matrix(1.2994794,0,0,1.2994794,-254.76954,-201.87617)"><path
             d="m 900.99702,436.24555 c 0.005,-4.51717 0.01,-9.03434 0.0149,-13.55151 2.44249,-1.36507 6.06614,-1.37432 6.74688,-0.32145 0.68074,1.05287 1.65786,2.13858 -0.23986,4.30561 -1.06517,1.21633 -3.37141,4.24509 -3.82125,4.82853 -0.44984,0.58344 -1.44459,2.23485 -0.77001,2.63065 m -2.53034,4.69992 c -3.19059,-3.19765 -6.38118,-6.39531 -9.57183,-9.5929 0.76185,-2.69235 3.31761,-5.2612 4.54346,-4.99806 1.22585,0.26313 2.68449,0.33992 2.87492,3.21413 0.10689,1.61327 0.61779,5.38568 0.71226,6.11632 0.0945,0.73064 0.55879,2.60176 1.31567,2.40463 m 1.53412,5.11257 c -4.51717,-0.005 -9.03434,-0.01 -13.55151,-0.0149 -1.36507,-2.44249 -1.37432,-6.06614 -0.32145,-6.74688 1.05287,-0.68074 2.13858,-1.65786 4.30561,0.23986 1.21633,1.06517 4.24509,3.37141 4.82853,3.82125 0.58344,0.44984 2.23485,1.44459 2.63065,0.77001 m 4.69992,2.53034 c -3.19765,3.19059 -6.39531,6.38118 -9.5929,9.57183 -2.69235,-0.76185 -5.2612,-3.31761 -4.99806,-4.54346 0.26313,-1.22585 0.33992,-2.68449 3.21413,-2.87492 1.61327,-0.10689 5.38568,-0.61779 6.11632,-0.71226 0.73064,-0.0945 2.60176,-0.55879 2.40463,-1.31567 m 5.11257,-1.53412 c -0.005,4.51717 -0.01,9.03434 -0.0149,13.55151 -2.44249,1.36507 -6.06614,1.37432 -6.74688,0.32145 -0.68074,-1.05287 -1.65786,-2.13858 0.23986,-4.30561 1.06517,-1.21633 3.37141,-4.24509 3.82125,-4.82853 0.44984,-0.58344 1.44459,-2.23485 0.77001,-2.63065 m 2.53034,-4.69992 c 3.19059,3.19765 6.38118,6.39531 9.57183,9.5929 -0.76185,2.69235 -3.31761,5.2612 -4.54346,4.99806 -1.22585,-0.26313 -2.68449,-0.33992 -2.87492,-3.21413 -0.10689,-1.61327 -0.61779,-5.38568 -0.71226,-6.11632 -0.0945,-0.73064 -0.55879,-2.60176 -1.31567,-2.40463 m -1.53412,-5.11257 c 4.51717,0.005 9.03434,0.01 13.55151,0.0149 1.36507,2.44249 1.37432,6.06614 0.32145,6.74688 -1.05287,0.68074 -2.13858,1.65786 -4.30561,-0.23986 -1.21633,-1.06517 -4.24509,-3.37141 -4.82853,-3.82125 -0.58344,-0.44984 -2.23485,-1.44459 -2.63065,-0.77001 m -4.69992,-2.53034 c 3.19765,-3.19059 6.39531,-6.38118 9.5929,-9.57183 2.69235,0.76185 5.2612,3.31761 4.99806,4.54346 -0.26313,1.22585 -0.33992,2.68449 -3.21413,2.87492 -1.61327,0.10689 -5.38568,0.61779 -6.11632,0.71226 -0.73064,0.0945 -2.60176,0.55879 -2.40463,1.31567"
             style="fill:#ffffff;fill-opacity:1;stroke-width:0.264583"
             id="path1546"
             transform="matrix(-0.78104606,0,0,-0.78104606,1656.6295,963.83986)"
             inkscape:original-d="m 900.99702,436.24555 c 0.005,-4.51717 0.01,-9.03434 0.0149,-13.55151 2.44249,-1.36507 6.06614,-1.37432 6.74688,-0.32145 0.68074,1.05287 1.65786,2.13858 -0.23986,4.30561 -1.06517,1.21633 -3.37141,4.24509 -3.82125,4.82853 -0.44984,0.58344 -1.44459,2.23485 -0.77001,2.63065"
             inkscape:path-effect="#path-effect1560"
             class="UnoptimicedTransforms"
             sodipodi:nodetypes="cczssc"
             inkscape:export-filename="Users\Bob\vect-black2.svg"
             inkscape:export-xdpi="96"
             inkscape:export-ydpi="96" /><circle
             style="fill:none;fill-opacity:1;stroke:#ffffff;stroke-width:0.611334;stroke-linecap:square;stroke-linejoin:round;stroke-dasharray:none;stroke-opacity:1;paint-order:fill markers stroke"
             id="circle1552"
             cx="950.70001"
             cy="621.53442"
             r="3.011534" /></g><rect
           style="font-variation-settings:'wght' 400;fill:#000000;fill-opacity:1;stroke:none;stroke-width:0.393294;stroke-linecap:square;stroke-linejoin:round;stroke-opacity:1;paint-order:fill markers stroke"
           id="rect1764"
           width="1416.8077"
           height="472.00705"
           x="928.00702"
           y="673.06934"
           inkscape:export-filename="twit-banner2.png"
           inkscape:export-xdpi="96"
           inkscape:export-ydpi="96" /></g><text
         xml:space="preserve"
         style="font-style:normal;font-variant:normal;font-weight:normal;font-stretch:normal;font-size:42.3194px;line-height:1.25;font-family:'Stretch Pro';-inkscape-font-specification:'Stretch Pro, @wght=400';font-variant-ligatures:normal;font-variant-caps:normal;font-variant-numeric:normal;font-variant-east-asian:normal;font-variation-settings:'wght' 400;letter-spacing:1.32544px;fill:#ffffff;fill-opacity:1;stroke:#ffffff;stroke-width:0.536739;stroke-dasharray:none;stroke-opacity:1"
         x="1908.6669"
         y="1079.8723"
         id="text1770"><tspan
           sodipodi:role="line"
           id="tspan1768"
           style="font-style:normal;font-variant:normal;font-weight:normal;font-stretch:normal;font-size:42.3194px;font-family:'Stretch Pro';-inkscape-font-specification:'Stretch Pro, @wght=400';font-variant-ligatures:normal;font-variant-caps:normal;font-variant-numeric:normal;font-variant-east-asian:normal;font-variation-settings:'wght' 400;fill:#ffffff;fill-opacity:1;stroke:#ffffff;stroke-width:0.536739;stroke-dasharray:none;stroke-opacity:1"
           x="1908.6669"
           y="1079.8723">Hypertensor</tspan></text><g
         id="g1827"><path
           d="m 900.99702,436.24555 c 0.005,-4.51717 0.01,-9.03434 0.0149,-13.55151 2.44249,-1.36507 6.06614,-1.37432 6.74688,-0.32145 0.68074,1.05287 1.65786,2.13858 -0.23986,4.30561 -1.06517,1.21633 -3.37141,4.24509 -3.82125,4.82853 -0.44984,0.58344 -1.44459,2.23485 -0.77001,2.63065 m -2.53034,4.69992 c -3.19059,-3.19765 -6.38118,-6.39531 -9.57183,-9.5929 0.76185,-2.69235 3.31761,-5.2612 4.54346,-4.99806 1.22585,0.26313 2.68449,0.33992 2.87492,3.21413 0.10689,1.61327 0.61779,5.38568 0.71226,6.11632 0.0945,0.73064 0.55879,2.60176 1.31567,2.40463 m 1.53412,5.11257 c -4.51717,-0.005 -9.03434,-0.01 -13.55151,-0.0149 -1.36507,-2.44249 -1.37432,-6.06614 -0.32145,-6.74688 1.05287,-0.68074 2.13858,-1.65786 4.30561,0.23986 1.21633,1.06517 4.24509,3.37141 4.82853,3.82125 0.58344,0.44984 2.23485,1.44459 2.63065,0.77001 m 4.69992,2.53034 c -3.19765,3.19059 -6.39531,6.38118 -9.5929,9.57183 -2.69235,-0.76185 -5.2612,-3.31761 -4.99806,-4.54346 0.26313,-1.22585 0.33992,-2.68449 3.21413,-2.87492 1.61327,-0.10689 5.38568,-0.61779 6.11632,-0.71226 0.73064,-0.0945 2.60176,-0.55879 2.40463,-1.31567 m 5.11257,-1.53412 c -0.005,4.51717 -0.01,9.03434 -0.0149,13.55151 -2.44249,1.36507 -6.06614,1.37432 -6.74688,0.32145 -0.68074,-1.05287 -1.65786,-2.13858 0.23986,-4.30561 1.06517,-1.21633 3.37141,-4.24509 3.82125,-4.82853 0.44984,-0.58344 1.44459,-2.23485 0.77001,-2.63065 m 2.53034,-4.69992 c 3.19059,3.19765 6.38118,6.39531 9.57183,9.5929 -0.76185,2.69235 -3.31761,5.2612 -4.54346,4.99806 -1.22585,-0.26313 -2.68449,-0.33992 -2.87492,-3.21413 -0.10689,-1.61327 -0.61779,-5.38568 -0.71226,-6.11632 -0.0945,-0.73064 -0.55879,-2.60176 -1.31567,-2.40463 m -1.53412,-5.11257 c 4.51717,0.005 9.03434,0.01 13.55151,0.0149 1.36507,2.44249 1.37432,6.06614 0.32145,6.74688 -1.05287,0.68074 -2.13858,1.65786 -4.30561,-0.23986 -1.21633,-1.06517 -4.24509,-3.37141 -4.82853,-3.82125 -0.58344,-0.44984 -2.23485,-1.44459 -2.63065,-0.77001 m -4.69992,-2.53034 c 3.19765,-3.19059 6.39531,-6.38118 9.5929,-9.57183 2.69235,0.76185 5.2612,3.31761 4.99806,4.54346 -0.26313,1.22585 -0.33992,2.68449 -3.21413,2.87492 -1.61327,0.10689 -5.38568,0.61779 -6.11632,0.71226 -0.73064,0.0945 -2.60176,0.55879 -2.40463,1.31567"
           style="fill:#ffffff;fill-opacity:1;stroke-width:0.264583"
           id="path1766"
           transform="matrix(-7.6550892,0,0,-7.6550892,9032.9343,4253.2574)"
           inkscape:original-d="m 900.99702,436.24555 c 0.005,-4.51717 0.01,-9.03434 0.0149,-13.55151 2.44249,-1.36507 6.06614,-1.37432 6.74688,-0.32145 0.68074,1.05287 1.65786,2.13858 -0.23986,4.30561 -1.06517,1.21633 -3.37141,4.24509 -3.82125,4.82853 -0.44984,0.58344 -1.44459,2.23485 -0.77001,2.63065"
           inkscape:path-effect="#path-effect1776"
           class="UnoptimicedTransforms"
           sodipodi:nodetypes="cczssc"
           inkscape:export-filename="Users\Bob\vect-black2.svg"
           inkscape:export-xdpi="96"
           inkscape:export-ydpi="96" /><circle
           style="fill:none;fill-opacity:1;stroke:#ffffff;stroke-width:5.99173;stroke-linecap:square;stroke-linejoin:round;stroke-dasharray:none;stroke-opacity:1;paint-order:fill markers stroke"
           id="circle1772"
           cx="2114.0679"
           cy="898.29694"
           r="29.516262" /></g><g
         id="g1833"
         transform="matrix(0.32449889,0,0,0.32449889,927.82466,523.98132)"><path
           d="m 900.99702,436.24555 c 0.005,-4.51717 0.01,-9.03434 0.0149,-13.55151 2.44249,-1.36507 6.06614,-1.37432 6.74688,-0.32145 0.68074,1.05287 1.65786,2.13858 -0.23986,4.30561 -1.06517,1.21633 -3.37141,4.24509 -3.82125,4.82853 -0.44984,0.58344 -1.44459,2.23485 -0.77001,2.63065 m -2.53034,4.69992 c -3.19059,-3.19765 -6.38118,-6.39531 -9.57183,-9.5929 0.76185,-2.69235 3.31761,-5.2612 4.54346,-4.99806 1.22585,0.26313 2.68449,0.33992 2.87492,3.21413 0.10689,1.61327 0.61779,5.38568 0.71226,6.11632 0.0945,0.73064 0.55879,2.60176 1.31567,2.40463 m 1.53412,5.11257 c -4.51717,-0.005 -9.03434,-0.01 -13.55151,-0.0149 -1.36507,-2.44249 -1.37432,-6.06614 -0.32145,-6.74688 1.05287,-0.68074 2.13858,-1.65786 4.30561,0.23986 1.21633,1.06517 4.24509,3.37141 4.82853,3.82125 0.58344,0.44984 2.23485,1.44459 2.63065,0.77001 m 4.69992,2.53034 c -3.19765,3.19059 -6.39531,6.38118 -9.5929,9.57183 -2.69235,-0.76185 -5.2612,-3.31761 -4.99806,-4.54346 0.26313,-1.22585 0.33992,-2.68449 3.21413,-2.87492 1.61327,-0.10689 5.38568,-0.61779 6.11632,-0.71226 0.73064,-0.0945 2.60176,-0.55879 2.40463,-1.31567 m 5.11257,-1.53412 c -0.005,4.51717 -0.01,9.03434 -0.0149,13.55151 -2.44249,1.36507 -6.06614,1.37432 -6.74688,0.32145 -0.68074,-1.05287 -1.65786,-2.13858 0.23986,-4.30561 1.06517,-1.21633 3.37141,-4.24509 3.82125,-4.82853 0.44984,-0.58344 1.44459,-2.23485 0.77001,-2.63065 m 2.53034,-4.69992 c 3.19059,3.19765 6.38118,6.39531 9.57183,9.5929 -0.76185,2.69235 -3.31761,5.2612 -4.54346,4.99806 -1.22585,-0.26313 -2.68449,-0.33992 -2.87492,-3.21413 -0.10689,-1.61327 -0.61779,-5.38568 -0.71226,-6.11632 -0.0945,-0.73064 -0.55879,-2.60176 -1.31567,-2.40463 m -1.53412,-5.11257 c 4.51717,0.005 9.03434,0.01 13.55151,0.0149 1.36507,2.44249 1.37432,6.06614 0.32145,6.74688 -1.05287,0.68074 -2.13858,1.65786 -4.30561,-0.23986 -1.21633,-1.06517 -4.24509,-3.37141 -4.82853,-3.82125 -0.58344,-0.44984 -2.23485,-1.44459 -2.63065,-0.77001 m -4.69992,-2.53034 c 3.19765,-3.19059 6.39531,-6.38118 9.5929,-9.57183 2.69235,0.76185 5.2612,3.31761 4.99806,4.54346 -0.26313,1.22585 -0.33992,2.68449 -3.21413,2.87492 -1.61327,0.10689 -5.38568,0.61779 -6.11632,0.71226 -0.73064,0.0945 -2.60176,0.55879 -2.40463,1.31567"
           style="fill:#ffffff;fill-opacity:1;stroke-width:0.264583"
           id="path1829"
           transform="matrix(-7.6550892,0,0,-7.6550892,9032.9343,4253.2574)"
           inkscape:original-d="m 900.99702,436.24555 c 0.005,-4.51717 0.01,-9.03434 0.0149,-13.55151 2.44249,-1.36507 6.06614,-1.37432 6.74688,-0.32145 0.68074,1.05287 1.65786,2.13858 -0.23986,4.30561 -1.06517,1.21633 -3.37141,4.24509 -3.82125,4.82853 -0.44984,0.58344 -1.44459,2.23485 -0.77001,2.63065"
           inkscape:path-effect="#path-effect1837"
           class="UnoptimicedTransforms"
           sodipodi:nodetypes="cczssc"
           inkscape:export-filename="Users\Bob\vect-black2.svg"
           inkscape:export-xdpi="96"
           inkscape:export-ydpi="96" /><circle
           style="fill:none;fill-opacity:1;stroke:#ffffff;stroke-width:5.99173;stroke-linecap:square;stroke-linejoin:round;stroke-dasharray:none;stroke-opacity:1;paint-order:fill markers stroke"
           id="circle1831"
           cx="2114.0679"
           cy="898.29694"
           r="29.516262" /></g><g
         id="g1843"
         transform="matrix(0.39486359,0,0,0.39486359,655.35598,670.99589)"><path
           d="m 900.99702,436.24555 c 0.005,-4.51717 0.01,-9.03434 0.0149,-13.55151 2.44249,-1.36507 6.06614,-1.37432 6.74688,-0.32145 0.68074,1.05287 1.65786,2.13858 -0.23986,4.30561 -1.06517,1.21633 -3.37141,4.24509 -3.82125,4.82853 -0.44984,0.58344 -1.44459,2.23485 -0.77001,2.63065 m -2.53034,4.69992 c -3.19059,-3.19765 -6.38118,-6.39531 -9.57183,-9.5929 0.76185,-2.69235 3.31761,-5.2612 4.54346,-4.99806 1.22585,0.26313 2.68449,0.33992 2.87492,3.21413 0.10689,1.61327 0.61779,5.38568 0.71226,6.11632 0.0945,0.73064 0.55879,2.60176 1.31567,2.40463 m 1.53412,5.11257 c -4.51717,-0.005 -9.03434,-0.01 -13.55151,-0.0149 -1.36507,-2.44249 -1.37432,-6.06614 -0.32145,-6.74688 1.05287,-0.68074 2.13858,-1.65786 4.30561,0.23986 1.21633,1.06517 4.24509,3.37141 4.82853,3.82125 0.58344,0.44984 2.23485,1.44459 2.63065,0.77001 m 4.69992,2.53034 c -3.19765,3.19059 -6.39531,6.38118 -9.5929,9.57183 -2.69235,-0.76185 -5.2612,-3.31761 -4.99806,-4.54346 0.26313,-1.22585 0.33992,-2.68449 3.21413,-2.87492 1.61327,-0.10689 5.38568,-0.61779 6.11632,-0.71226 0.73064,-0.0945 2.60176,-0.55879 2.40463,-1.31567 m 5.11257,-1.53412 c -0.005,4.51717 -0.01,9.03434 -0.0149,13.55151 -2.44249,1.36507 -6.06614,1.37432 -6.74688,0.32145 -0.68074,-1.05287 -1.65786,-2.13858 0.23986,-4.30561 1.06517,-1.21633 3.37141,-4.24509 3.82125,-4.82853 0.44984,-0.58344 1.44459,-2.23485 0.77001,-2.63065 m 2.53034,-4.69992 c 3.19059,3.19765 6.38118,6.39531 9.57183,9.5929 -0.76185,2.69235 -3.31761,5.2612 -4.54346,4.99806 -1.22585,-0.26313 -2.68449,-0.33992 -2.87492,-3.21413 -0.10689,-1.61327 -0.61779,-5.38568 -0.71226,-6.11632 -0.0945,-0.73064 -0.55879,-2.60176 -1.31567,-2.40463 m -1.53412,-5.11257 c 4.51717,0.005 9.03434,0.01 13.55151,0.0149 1.36507,2.44249 1.37432,6.06614 0.32145,6.74688 -1.05287,0.68074 -2.13858,1.65786 -4.30561,-0.23986 -1.21633,-1.06517 -4.24509,-3.37141 -4.82853,-3.82125 -0.58344,-0.44984 -2.23485,-1.44459 -2.63065,-0.77001 m -4.69992,-2.53034 c 3.19765,-3.19059 6.39531,-6.38118 9.5929,-9.57183 2.69235,0.76185 5.2612,3.31761 4.99806,4.54346 -0.26313,1.22585 -0.33992,2.68449 -3.21413,2.87492 -1.61327,0.10689 -5.38568,0.61779 -6.11632,0.71226 -0.73064,0.0945 -2.60176,0.55879 -2.40463,1.31567"
           style="fill:#ffffff;fill-opacity:1;stroke-width:0.264583"
           id="path1839"
           transform="matrix(-7.6550892,0,0,-7.6550892,9032.9343,4253.2574)"
           inkscape:original-d="m 900.99702,436.24555 c 0.005,-4.51717 0.01,-9.03434 0.0149,-13.55151 2.44249,-1.36507 6.06614,-1.37432 6.74688,-0.32145 0.68074,1.05287 1.65786,2.13858 -0.23986,4.30561 -1.06517,1.21633 -3.37141,4.24509 -3.82125,4.82853 -0.44984,0.58344 -1.44459,2.23485 -0.77001,2.63065"
           inkscape:path-effect="#path-effect1847"
           class="UnoptimicedTransforms"
           sodipodi:nodetypes="cczssc"
           inkscape:export-filename="Users\Bob\vect-black2.svg"
           inkscape:export-xdpi="96"
           inkscape:export-ydpi="96" /><circle
           style="fill:none;fill-opacity:1;stroke:#ffffff;stroke-width:5.99173;stroke-linecap:square;stroke-linejoin:round;stroke-dasharray:none;stroke-opacity:1;paint-order:fill markers stroke"
           id="circle1841"
           cx="2114.0679"
           cy="898.29694"
           r="29.516262" /></g><g
         id="g1853"
         transform="matrix(0.16969655,0,0,0.16969655,876.6721,618.45593)"><path
           d="m 900.99702,436.24555 c 0.005,-4.51717 0.01,-9.03434 0.0149,-13.55151 2.44249,-1.36507 6.06614,-1.37432 6.74688,-0.32145 0.68074,1.05287 1.65786,2.13858 -0.23986,4.30561 -1.06517,1.21633 -3.37141,4.24509 -3.82125,4.82853 -0.44984,0.58344 -1.44459,2.23485 -0.77001,2.63065 m -2.53034,4.69992 c -3.19059,-3.19765 -6.38118,-6.39531 -9.57183,-9.5929 0.76185,-2.69235 3.31761,-5.2612 4.54346,-4.99806 1.22585,0.26313 2.68449,0.33992 2.87492,3.21413 0.10689,1.61327 0.61779,5.38568 0.71226,6.11632 0.0945,0.73064 0.55879,2.60176 1.31567,2.40463 m 1.53412,5.11257 c -4.51717,-0.005 -9.03434,-0.01 -13.55151,-0.0149 -1.36507,-2.44249 -1.37432,-6.06614 -0.32145,-6.74688 1.05287,-0.68074 2.13858,-1.65786 4.30561,0.23986 1.21633,1.06517 4.24509,3.37141 4.82853,3.82125 0.58344,0.44984 2.23485,1.44459 2.63065,0.77001 m 4.69992,2.53034 c -3.19765,3.19059 -6.39531,6.38118 -9.5929,9.57183 -2.69235,-0.76185 -5.2612,-3.31761 -4.99806,-4.54346 0.26313,-1.22585 0.33992,-2.68449 3.21413,-2.87492 1.61327,-0.10689 5.38568,-0.61779 6.11632,-0.71226 0.73064,-0.0945 2.60176,-0.55879 2.40463,-1.31567 m 5.11257,-1.53412 c -0.005,4.51717 -0.01,9.03434 -0.0149,13.55151 -2.44249,1.36507 -6.06614,1.37432 -6.74688,0.32145 -0.68074,-1.05287 -1.65786,-2.13858 0.23986,-4.30561 1.06517,-1.21633 3.37141,-4.24509 3.82125,-4.82853 0.44984,-0.58344 1.44459,-2.23485 0.77001,-2.63065 m 2.53034,-4.69992 c 3.19059,3.19765 6.38118,6.39531 9.57183,9.5929 -0.76185,2.69235 -3.31761,5.2612 -4.54346,4.99806 -1.22585,-0.26313 -2.68449,-0.33992 -2.87492,-3.21413 -0.10689,-1.61327 -0.61779,-5.38568 -0.71226,-6.11632 -0.0945,-0.73064 -0.55879,-2.60176 -1.31567,-2.40463 m -1.53412,-5.11257 c 4.51717,0.005 9.03434,0.01 13.55151,0.0149 1.36507,2.44249 1.37432,6.06614 0.32145,6.74688 -1.05287,0.68074 -2.13858,1.65786 -4.30561,-0.23986 -1.21633,-1.06517 -4.24509,-3.37141 -4.82853,-3.82125 -0.58344,-0.44984 -2.23485,-1.44459 -2.63065,-0.77001 m -4.69992,-2.53034 c 3.19765,-3.19059 6.39531,-6.38118 9.5929,-9.57183 2.69235,0.76185 5.2612,3.31761 4.99806,4.54346 -0.26313,1.22585 -0.33992,2.68449 -3.21413,2.87492 -1.61327,0.10689 -5.38568,0.61779 -6.11632,0.71226 -0.73064,0.0945 -2.60176,0.55879 -2.40463,1.31567"
           style="fill:#ffffff;fill-opacity:1;stroke-width:0.264583"
           id="path1849"
           transform="matrix(-7.6550892,0,0,-7.6550892,9032.9343,4253.2574)"
           inkscape:original-d="m 900.99702,436.24555 c 0.005,-4.51717 0.01,-9.03434 0.0149,-13.55151 2.44249,-1.36507 6.06614,-1.37432 6.74688,-0.32145 0.68074,1.05287 1.65786,2.13858 -0.23986,4.30561 -1.06517,1.21633 -3.37141,4.24509 -3.82125,4.82853 -0.44984,0.58344 -1.44459,2.23485 -0.77001,2.63065"
           inkscape:path-effect="#path-effect1857"
           class="UnoptimicedTransforms"
           sodipodi:nodetypes="cczssc"
           inkscape:export-filename="Users\Bob\vect-black2.svg"
           inkscape:export-xdpi="96"
           inkscape:export-ydpi="96" /><circle
           style="fill:none;fill-opacity:1;stroke:#ffffff;stroke-width:5.99173;stroke-linecap:square;stroke-linejoin:round;stroke-dasharray:none;stroke-opacity:1;paint-order:fill markers stroke"
           id="circle1851"
           cx="2114.0679"
           cy="898.29694"
           r="29.516262" /></g><g
         id="g2028"
         transform="translate(0,115.36988)"
         inkscape:export-filename="g2028.svg"
         inkscape:export-xdpi="96"
         inkscape:export-ydpi="96"><path
           d="m 900.99702,436.24555 c 0.005,-4.51717 0.01,-9.03434 0.0149,-13.55151 2.44249,-1.36507 6.06614,-1.37432 6.74688,-0.32145 0.68074,1.05287 1.65786,2.13858 -0.23986,4.30561 -1.06517,1.21633 -3.37141,4.24509 -3.82125,4.82853 -0.44984,0.58344 -1.44459,2.23485 -0.77001,2.63065 m -2.53034,4.69992 c -3.19059,-3.19765 -6.38118,-6.39531 -9.57183,-9.5929 0.76185,-2.69235 3.31761,-5.2612 4.54346,-4.99806 1.22585,0.26313 2.68449,0.33992 2.87492,3.21413 0.10689,1.61327 0.61779,5.38568 0.71226,6.11632 0.0945,0.73064 0.55879,2.60176 1.31567,2.40463 m 1.53412,5.11257 c -4.51717,-0.005 -9.03434,-0.01 -13.55151,-0.0149 -1.36507,-2.44249 -1.37432,-6.06614 -0.32145,-6.74688 1.05287,-0.68074 2.13858,-1.65786 4.30561,0.23986 1.21633,1.06517 4.24509,3.37141 4.82853,3.82125 0.58344,0.44984 2.23485,1.44459 2.63065,0.77001 m 4.69992,2.53034 c -3.19765,3.19059 -6.39531,6.38118 -9.5929,9.57183 -2.69235,-0.76185 -5.2612,-3.31761 -4.99806,-4.54346 0.26313,-1.22585 0.33992,-2.68449 3.21413,-2.87492 1.61327,-0.10689 5.38568,-0.61779 6.11632,-0.71226 0.73064,-0.0945 2.60176,-0.55879 2.40463,-1.31567 m 5.11257,-1.53412 c -0.005,4.51717 -0.01,9.03434 -0.0149,13.55151 -2.44249,1.36507 -6.06614,1.37432 -6.74688,0.32145 -0.68074,-1.05287 -1.65786,-2.13858 0.23986,-4.30561 1.06517,-1.21633 3.37141,-4.24509 3.82125,-4.82853 0.44984,-0.58344 1.44459,-2.23485 0.77001,-2.63065 m 2.53034,-4.69992 c 3.19059,3.19765 6.38118,6.39531 9.57183,9.5929 -0.76185,2.69235 -3.31761,5.2612 -4.54346,4.99806 -1.22585,-0.26313 -2.68449,-0.33992 -2.87492,-3.21413 -0.10689,-1.61327 -0.61779,-5.38568 -0.71226,-6.11632 -0.0945,-0.73064 -0.55879,-2.60176 -1.31567,-2.40463 m -1.53412,-5.11257 c 4.51717,0.005 9.03434,0.01 13.55151,0.0149 1.36507,2.44249 1.37432,6.06614 0.32145,6.74688 -1.05287,0.68074 -2.13858,1.65786 -4.30561,-0.23986 -1.21633,-1.06517 -4.24509,-3.37141 -4.82853,-3.82125 -0.58344,-0.44984 -2.23485,-1.44459 -2.63065,-0.77001 m -4.69992,-2.53034 c 3.19765,-3.19059 6.39531,-6.38118 9.5929,-9.57183 2.69235,0.76185 5.2612,3.31761 4.99806,4.54346 -0.26313,1.22585 -0.33992,2.68449 -3.21413,2.87492 -1.61327,0.10689 -5.38568,0.61779 -6.11632,0.71226 -0.73064,0.0945 -2.60176,0.55879 -2.40463,1.31567"
           style="fill:#ffffff;fill-opacity:1;stroke-width:0.264583"
           id="path2024"
           transform="matrix(-1.115682,0,0,-1.115682,1919.3867,1165.0504)"
           inkscape:original-d="m 900.99702,436.24555 c 0.005,-4.51717 0.01,-9.03434 0.0149,-13.55151 2.44249,-1.36507 6.06614,-1.37432 6.74688,-0.32145 0.68074,1.05287 1.65786,2.13858 -0.23986,4.30561 -1.06517,1.21633 -3.37141,4.24509 -3.82125,4.82853 -0.44984,0.58344 -1.44459,2.23485 -0.77001,2.63065"
           inkscape:path-effect="#path-effect2032"
           class="UnoptimicedTransforms"
           sodipodi:nodetypes="cczssc"
           inkscape:export-filename="Users\Bob\vect-black2.svg"
           inkscape:export-xdpi="96"
           inkscape:export-ydpi="96" /><circle
           style="fill:none;fill-opacity:1;stroke:#ffffff;stroke-width:0.873258;stroke-linecap:square;stroke-linejoin:round;stroke-dasharray:none;stroke-opacity:1;paint-order:fill markers stroke"
           id="circle2026"
           cx="911.0047"
           cy="676.08557"
           r="4.3018131" /></g><g
         aria-label="ION GPT"
         id="text2806"
         style="font-size:15.1184px;font-family:'Stretch Pro';-inkscape-font-specification:'Stretch Pro, @wght=400';font-variation-settings:'wght' 400;letter-spacing:0.473508px;fill:#ffffff;stroke:#ffffff;stroke-width:0.191748"><g
           id="path3898"
           inkscape:export-filename="path3898.svg"
           inkscape:export-xdpi="96"
           inkscape:export-ydpi="96"><path
             style="color:#000000;-inkscape-font-specification:'Stretch Pro, @wght=400';stroke:none;-inkscape-stroke:none"
             d="m 771.46575,767.61099 h -3.59818 v 10.55265 h 3.59818 z"
             id="path3913" /><path
             style="color:#000000;-inkscape-font-specification:'Stretch Pro, @wght=400';stroke:none;-inkscape-stroke:none"
             d="m 767.77148,767.51562 v 10.74415 h 3.79102 v -10.74415 h -0.0977 z m 0.19141,0.19141 h 3.40625 v 10.36133 h -3.40625 z"
             id="path3915" /></g><g
           id="path3900"><path
             style="color:#000000;-inkscape-font-specification:'Stretch Pro, @wght=400';stroke:none;-inkscape-stroke:none"
             d="m 781.4185,767.41445 c -1.01293,0 -1.92004,0.0605 -2.75155,0.19654 -0.81639,0.12095 -1.51184,0.28725 -2.07122,0.49891 -0.54426,0.21166 -1.02805,0.46867 -1.43625,0.77104 -0.42331,0.30237 -0.7408,0.60473 -0.98269,0.9071 -0.22678,0.30237 -0.4082,0.63497 -0.54427,0.99782 -0.15118,0.36284 -0.24189,0.69544 -0.27213,0.96757 -0.0454,0.28725 -0.0605,0.5745 -0.0605,0.89199 v 0.42331 c 0,0.30237 0.0151,0.60474 0.0605,0.89199 0.0302,0.27213 0.12095,0.60474 0.27213,0.96758 0.13607,0.36284 0.31749,0.69544 0.54427,1.01293 0.24189,0.30237 0.55938,0.60474 0.98269,0.92222 0.42332,0.30237 0.90711,0.55938 1.45137,0.78616 0.54426,0.21166 1.23971,0.37796 2.0561,0.51403 0.83151,0.13606 1.73862,0.19653 2.75155,0.19653 h 0.48379 c 1.01293,0 1.92004,-0.0605 2.73643,-0.19653 0.83151,-0.13607 1.51184,-0.30237 2.0561,-0.51403 0.54426,-0.22678 1.02805,-0.48379 1.45137,-0.78616 0.42331,-0.31748 0.7408,-0.61985 0.96758,-0.92222 0.22677,-0.31749 0.40819,-0.65009 0.55938,-1.01293 0.13606,-0.36284 0.24189,-0.69545 0.27213,-0.96758 0.0453,-0.28725 0.0605,-0.58962 0.0605,-0.89199 v -0.42331 c 0,-0.31749 -0.0151,-0.60474 -0.0605,-0.89199 -0.0302,-0.28725 -0.13607,-0.60473 -0.27213,-0.96757 -0.15119,-0.36285 -0.33261,-0.69545 -0.5745,-0.99782 -0.22678,-0.30237 -0.54426,-0.60473 -0.96758,-0.9071 -0.4082,-0.30237 -0.89199,-0.55938 -1.43625,-0.77104 -0.55938,-0.21166 -1.23971,-0.37796 -2.0561,-0.49891 -0.81639,-0.13606 -1.7235,-0.19654 -2.73643,-0.19654 z m 4.80765,5.53334 c 0,0.3326 -0.0605,0.66521 -0.19654,0.96757 -0.12094,0.30237 -0.34772,0.60474 -0.66521,0.89199 -0.31748,0.30237 -0.80127,0.54426 -1.45136,0.71057 -0.55938,0.1663 -1.23971,0.24189 -2.01075,0.27213 -0.12095,0 -0.30237,0 -0.37796,0 -0.83151,-0.0151 -1.5572,-0.10583 -2.16193,-0.27213 -0.65009,-0.18143 -1.11876,-0.42332 -1.43625,-0.72569 -0.30237,-0.30237 -0.52914,-0.60473 -0.65009,-0.9071 -0.13607,-0.30237 -0.19654,-0.63497 -0.19654,-0.96758 v -0.1663 c 0,-1.79909 1.46648,-2.72131 4.38434,-2.78179 0.0907,0 0.36284,0 0.4989,0.0151 0.58962,0.0151 1.11876,0.0605 1.58743,0.1663 0.55939,0.12095 1.01294,0.27213 1.34554,0.45356 0.33261,0.1663 0.60474,0.39307 0.80128,0.65009 0.21166,0.25701 0.34772,0.4989 0.42331,0.7408 0.0756,0.22677 0.10583,0.48379 0.10583,0.75592 z"
             id="path3919" /><path
             style="color:#000000;-inkscape-font-specification:'Stretch Pro, @wght=400';stroke:none;-inkscape-stroke:none"
             d="m 781.41797,767.31836 c -1.01675,0 -1.92762,0.0602 -2.76563,0.19726 -0.82118,0.12167 -1.52141,0.28883 -2.08984,0.50391 h -0.002 v 0.002 c -0.55081,0.21421 -1.04255,0.47474 -1.45899,0.78321 -0.42816,0.30615 -0.75252,0.61447 -1,0.92383 l -0.002,0.002 c -0.2323,0.30973 -0.4175,0.65044 -0.55664,1.02148 -0.1528,0.3677 -0.24586,0.7069 -0.27735,0.99024 -0.046,0.29248 -0.0625,0.58319 -0.0625,0.90234 v 0.42383 c 10e-6,0.3036 0.0167,0.60981 0.0625,0.90234 0.0316,0.28455 0.12536,0.62468 0.2793,0.99414 0.13904,0.37007 0.32408,0.7084 0.55469,1.03125 V 776 l 0.002,0.002 c 0.24798,0.30998 0.57173,0.6163 1,0.9375 l 0.002,0.002 c 0.43052,0.30751 0.92132,0.56796 1.4707,0.79687 h 0.002 c 0.55416,0.21551 1.25405,0.38283 2.07422,0.51953 h 0.002 c 0.83801,0.13713 1.74888,0.19727 2.76563,0.19727 h 0.48437 c 1.01675,0 1.92876,-0.0601 2.75196,-0.19727 0.83557,-0.13673 1.52257,-0.30424 2.07617,-0.51953 h 0.002 c 0.54938,-0.22891 1.03823,-0.48936 1.46875,-0.79687 h 0.002 v -0.002 c 0.42828,-0.3212 0.75414,-0.62922 0.98829,-0.9414 v -0.002 c 0.23112,-0.32358 0.41665,-0.66247 0.57031,-1.03125 v -0.002 h 0.002 c 0.13627,-0.36338 0.24267,-0.69946 0.27539,-0.98633 0.0464,-0.29421 0.0625,-0.60262 0.0625,-0.9082 v -0.42383 c 0,-0.32053 -0.0161,-0.6125 -0.0625,-0.90625 -0.0326,-0.30154 -0.13943,-0.62377 -0.27539,-0.98633 l -0.002,-0.002 v -0.002 c -0.15332,-0.36795 -0.33808,-0.70726 -0.58594,-1.01758 l -0.002,-0.002 c -0.23404,-0.31154 -0.55774,-0.61965 -0.98633,-0.92579 v 0.002 c -0.41643,-0.30847 -0.90622,-0.569 -1.45703,-0.78321 l -0.002,-0.002 c -0.5674,-0.21469 -1.25384,-0.38225 -2.07422,-0.50391 h -0.002 c -0.82274,-0.13699 -1.73397,-0.19726 -2.75,-0.19726 z m 0,0.19141 h 0.48437 c 1.00912,0 1.91113,0.0604 2.72071,0.19531 h 0.002 c 0.81142,0.12021 1.4843,0.2857 2.03516,0.49414 0.53771,0.20911 1.01409,0.46154 1.41406,0.75781 v 0.002 h 0.002 c 0.41717,0.29798 0.7259,0.59417 0.94531,0.88672 l 0.002,0.002 c 0.23507,0.29385 0.41183,0.61769 0.56054,0.97461 0.13496,0.36005 0.23715,0.67054 0.26563,0.9414 v 0.002 0.002 c 0.0444,0.28075 0.0606,0.5625 0.0606,0.87695 v 0.42383 c 0,0.29916 -0.0163,0.59667 -0.0606,0.87695 v 0.002 0.002 c -0.0284,0.25527 -0.13135,0.58292 -0.26563,0.9414 -0.14871,0.35691 -0.3264,0.68275 -0.54882,0.99415 -0.21888,0.29133 -0.52919,0.58803 -0.94532,0.90039 -0.41611,0.29722 -0.8925,0.55074 -1.43164,0.77539 -0.53468,0.20776 -1.20845,0.37253 -2.03515,0.50781 -0.80958,0.13489 -1.71159,0.19531 -2.72071,0.19531 h -0.48437 c -1.0084,0 -1.90984,-0.0605 -2.73438,-0.19531 h -0.002 c -0.81091,-0.13525 -1.49953,-0.30046 -2.0332,-0.50781 h -0.002 c -0.53756,-0.22411 -1.01448,-0.47715 -1.42968,-0.77344 l -0.002,-0.002 c -0.41702,-0.31303 -0.72758,-0.61015 -0.96289,-0.9043 -0.22121,-0.31029 -0.39681,-0.63306 -0.52929,-0.98633 v -0.002 l -0.002,-0.002 c -0.14842,-0.35621 -0.2368,-0.68169 -0.26562,-0.9414 v -0.002 -0.002 c -0.0443,-0.28024 -0.0586,-0.57777 -0.0586,-0.87695 v -0.42383 c 0,-0.31445 0.0142,-0.5962 0.0586,-0.87695 v -0.002 -0.002 c 0.0289,-0.25973 0.11721,-0.5852 0.26562,-0.9414 l 0.002,-0.002 c 0.13267,-0.3538 0.30877,-0.67821 0.52929,-0.97265 l 0.002,-0.002 c 0.23562,-0.29414 0.54465,-0.58937 0.96093,-0.88672 h 0.002 v -0.002 c 0.39953,-0.29595 0.8751,-0.54883 1.41211,-0.75781 0.55032,-0.20824 1.24114,-0.3739 2.05273,-0.49414 0.82502,-0.13498 1.72722,-0.19531 2.73633,-0.19531 z m 0.043,2.36328 c -1.46869,0.0304 -2.57901,0.27594 -3.33399,0.7539 -0.75498,0.47796 -1.14257,1.19941 -1.14258,2.125 v 0.16602 c 0,0.34281 0.0619,0.68634 0.20313,1.00195 3e-4,7.6e-4 0.002,10e-4 0.002,0.002 2.7e-4,6e-4 -2.6e-4,10e-4 0,0.002 0.12843,0.31901 0.3611,0.62868 0.66797,0.93554 l 0.002,0.002 c 0.33312,0.31725 0.81672,0.56389 1.47657,0.74804 l 0.002,0.002 c 0.61504,0.16913 1.34808,0.26018 2.18555,0.27539 h 0.38086 0.002 c 0.77508,-0.0304 1.46108,-0.10726 2.0332,-0.27735 0.65911,-0.16898 1.15655,-0.41461 1.49024,-0.73242 0.32357,-0.29302 0.55924,-0.60328 0.6875,-0.92187 v -0.002 c 0.14191,-0.31617 0.20508,-0.66227 0.20508,-1.00585 v -0.19532 c 0,-0.27855 -0.0317,-0.54549 -0.11133,-0.78515 v -0.002 c -0.0798,-0.25453 -0.2214,-0.50666 -0.4375,-0.76953 l -0.002,-0.002 c -0.20552,-0.26808 -0.48654,-0.5018 -0.83007,-0.67383 h -0.002 c -0.34452,-0.18768 -0.80384,-0.34095 -1.36718,-0.46289 h -0.002 c -0.4753,-0.10712 -1.0087,-0.15258 -1.59765,-0.16797 h -0.008 c -0.1512,-0.0159 -0.41264,-0.0156 -0.50195,-0.0156 z m 0.002,0.1914 c 0.0907,0 0.3681,0.002 0.49023,0.0156 h 0.004 0.004 c 0.58617,0.015 1.10906,0.0604 1.56836,0.16406 0.55372,0.11973 1.00022,0.27071 1.32031,0.44531 h 0.002 0.002 c 0.32013,0.16007 0.58044,0.37834 0.76757,0.62305 v 0.002 l 0.002,0.002 c 0.20571,0.24978 0.335,0.47902 0.40625,0.70703 v 0.002 c 0.0711,0.21343 0.10156,0.46153 0.10156,0.72656 v 0.19532 c 0,0.32097 -0.0598,0.64162 -0.18945,0.92968 v 0.002 c -0.11378,0.28446 -0.33112,0.57739 -0.64063,0.85742 h -0.002 v 0.002 c -0.30075,0.28644 -0.77063,0.52389 -1.41016,0.6875 h -0.002 -0.002 c -0.54558,0.1622 -1.21727,0.23738 -1.98243,0.26758 h -0.37695 -0.002 c -0.82462,-0.0151 -1.54089,-0.10426 -2.13477,-0.26758 -0.63925,-0.1784 -1.09267,-0.41434 -1.39453,-0.70117 l -0.002,-0.002 c -0.29558,-0.29596 -0.51346,-0.58931 -0.62696,-0.87305 v -0.002 l -0.002,-0.002 c -0.12963,-0.28807 -0.1875,-0.60674 -0.1875,-0.92773 v -0.16602 c 0,-0.87349 0.34501,-1.51484 1.05274,-1.96289 0.70691,-0.44753 1.78772,-0.69411 3.23437,-0.72461 z"
             id="path3921" /></g><g
           id="path3902"><path
             style="color:#000000;-inkscape-font-specification:'Stretch Pro, @wght=400';stroke:none;-inkscape-stroke:none"
             d="m 791.85504,767.59587 v 10.58288 h 3.55282 v -7.01493 l 7.83133,7.01493 h 3.56795 v -10.58288 h -3.56795 v 6.6521 l -7.36266,-6.6521 z"
             id="path3925" /><path
             style="color:#000000;-inkscape-font-specification:'Stretch Pro, @wght=400';stroke:none;-inkscape-stroke:none"
             d="m 791.75977,767.5 v 0.0957 10.67969 h 3.74414 v -6.89844 l 7.69921,6.89844 h 3.69922 V 767.5 h -3.75976 v 6.5332 L 795.91406,767.5 Z m 0.1914,0.19141 h 3.88867 l 7.4961,6.77148 v -6.77148 h 3.375 v 10.39062 h -3.43555 l -7.96289,-7.13281 v 7.13281 h -3.36133 z"
             id="path3927" /></g><g
           id="path3904"><path
             style="color:#000000;-inkscape-font-specification:'Stretch Pro, @wght=400';stroke:none;-inkscape-stroke:none"
             d="m 825.20078,778.34506 c 2.53989,0 4.38434,-0.60474 5.54846,-1.82933 0.0151,0.69545 0.0302,1.64791 0.0302,1.64791 h 2.60037 v -5.9113 h -8.11858 v 1.99563 h 4.5204 v 0.0302 c 0,0.0605 -0.0454,0.15118 -0.12095,0.27213 -0.0907,0.10583 -0.25701,0.24189 -0.46867,0.37796 -0.22678,0.15118 -0.49891,0.28725 -0.81639,0.40819 -0.31749,0.12095 -0.7408,0.22678 -1.28507,0.31749 -0.52914,0.0756 -1.11876,0.12095 -1.75373,0.12095 -1.46649,0 -2.55501,-0.27213 -3.28069,-0.83151 -0.71057,-0.55938 -1.07341,-1.22459 -1.07341,-1.99563 v -0.16631 c 0,-1.88979 1.46648,-2.84225 4.38434,-2.84225 2.34335,0 3.704,0.4989 4.09708,1.49672 h 3.82496 v -0.0151 c 0,-0.33261 -0.0605,-0.65009 -0.18142,-0.96758 -0.10583,-0.31748 -0.33261,-0.66521 -0.68033,-1.05829 -0.33261,-0.37796 -0.77104,-0.71056 -1.30018,-0.98269 -0.52915,-0.28725 -1.26995,-0.51403 -2.20729,-0.71057 -0.93734,-0.18142 -2.02587,-0.27213 -3.25046,-0.27213 h -0.66521 c -1.26994,0 -2.3887,0.10583 -3.34116,0.34772 -0.96758,0.2419 -1.7235,0.52915 -2.26776,0.89199 -0.54426,0.34772 -0.99782,0.77104 -1.34554,1.25483 -0.34772,0.48379 -0.5745,0.95246 -0.68033,1.37577 -0.10583,0.43844 -0.15118,0.87687 -0.15118,1.34554 v 0.39308 c 0,0.46867 0.0605,0.92222 0.18142,1.37577 0.13606,0.43844 0.37796,0.90711 0.72568,1.40601 0.34773,0.48379 0.80128,0.90711 1.34554,1.26995 0.55938,0.36284 1.30018,0.66521 2.2224,0.9071 0.93735,0.22678 1.99563,0.34773 3.18999,0.34773 z"
             id="path3931" /><path
             style="color:#000000;-inkscape-font-specification:'Stretch Pro, @wght=400';stroke:none;-inkscape-stroke:none"
             d="m 825.00391,767.33398 c -1.27527,0 -2.40189,0.10496 -3.36524,0.34961 -0.97248,0.24327 -1.73837,0.53392 -2.29687,0.90625 -0.55257,0.35343 -1.01436,0.78372 -1.36914,1.27735 -0.35332,0.49157 -0.58571,0.97173 -0.69532,1.41015 h -0.002 c -0.10778,0.44654 -0.15234,0.89234 -0.15234,1.36719 v 0.39453 c 0,0.47692 0.0606,0.93916 0.18359,1.40039 v 0.002 l 0.002,0.002 c 0.13987,0.45069 0.38639,0.92675 0.73828,1.43164 v 0.002 c 0.35532,0.49435 0.81866,0.92468 1.3711,1.29297 0.5714,0.37064 1.32295,0.67626 2.25195,0.91992 0.94581,0.22883 2.01206,0.35157 3.21289,0.35157 h 0.31836 c 2.4652,0 4.26217,-0.59934 5.45508,-1.76172 0.0135,0.66171 0.0273,1.48633 0.0273,1.48633 l 0.002,0.0937 h 2.79101 v -6.10352 h -8.31054 v 2.1875 h 4.48828 c -0.0136,0.0366 -0.0234,0.0715 -0.0703,0.14844 -0.0802,0.0926 -0.23891,0.22403 -0.44336,0.35547 h -0.002 c -0.21942,0.14627 -0.48472,0.27952 -0.79687,0.39843 -0.30839,0.11748 -0.72729,0.22246 -1.26758,0.3125 -0.52413,0.0748 -1.10858,0.1211 -1.73828,0.1211 -1.45463,0 -2.51983,-0.27225 -3.22071,-0.8125 -0.694,-0.54634 -1.0371,-1.17896 -1.03711,-1.91992 v -0.16602 c 0,-0.92009 0.34774,-1.59032 1.05469,-2.04883 0.70695,-0.45851 1.78588,-0.69726 3.23438,-0.69726 1.16487,0 2.08047,0.12575 2.74609,0.36914 0.66562,0.24338 1.07701,0.59752 1.26172,1.0664 l 0.0234,0.0606 h 3.98633 v -0.11133 c 0,-0.34358 -0.0633,-0.67124 -0.1875,-0.99805 -0.11246,-0.33591 -0.3454,-0.69207 -0.69727,-1.08984 -0.34122,-0.38775 -0.78911,-0.72734 -1.32617,-1.00391 -0.54353,-0.29505 -1.29247,-0.5232 -2.23438,-0.7207 h -0.002 c -0.94508,-0.18292 -2.03825,-0.27344 -3.26758,-0.27344 z m 0,0.19141 h 0.66601 c 1.21912,0 2.30125,0.0898 3.23047,0.26953 0.93277,0.19558 1.66687,0.42173 2.18164,0.70117 l 0.002,0.002 c 0.52004,0.26745 0.94805,0.5934 1.27149,0.96093 0.34283,0.38756 0.56263,0.72697 0.66211,1.02539 v 0.002 0.002 c 0.10706,0.2811 0.15102,0.5606 0.16015,0.85156 h -3.69531 c -0.22272,-0.48857 -0.63976,-0.87477 -1.30273,-1.11718 -0.69882,-0.25553 -1.63402,-0.37891 -2.8125,-0.37891 -1.46936,0 -2.58214,0.2364 -3.33789,0.72656 -0.75576,0.49017 -1.14258,1.24125 -1.14258,2.21094 v 0.16602 c 0,0.80111 0.38224,1.49984 1.10937,2.07226 h 0.002 c 0.75048,0.5785 1.85954,0.85156 3.33789,0.85156 0.63953,0 1.23388,-0.0468 1.76758,-0.12304 h 0.002 c 0.54824,-0.0914 0.97809,-0.19785 1.30469,-0.32227 0.32189,-0.12262 0.60025,-0.26046 0.83398,-0.41601 l 0.002,-0.002 c 0.21556,-0.13881 0.38677,-0.27608 0.48828,-0.39453 l 0.004,-0.006 0.004,-0.006 c 0.0778,-0.12457 0.13476,-0.21575 0.13476,-0.32422 v -0.125 h -4.51953 v -1.80468 h 7.92578 v 5.7207 h -2.41015 c -0.002,-0.0985 -0.0131,-0.89831 -0.0274,-1.55469 l -0.006,-0.23242 -0.16015,0.16797 c -1.14014,1.19936 -2.95385,1.80078 -5.47852,1.80078 h -0.31836 c -1.18788,0 -2.23712,-0.12097 -3.16601,-0.3457 -0.91544,-0.24012 -1.646,-0.53949 -2.19336,-0.89453 -0.53608,-0.35739 -0.98018,-0.77287 -1.32032,-1.2461 -0.34253,-0.49173 -0.57874,-0.94969 -0.71093,-1.375 v -0.002 c -0.11854,-0.44523 -0.17774,-0.88789 -0.17774,-1.34766 v -0.39453 c 0,-0.46248 0.0446,-0.89192 0.14844,-1.32226 0.10205,-0.4082 0.32194,-0.8658 0.66406,-1.3418 0.34013,-0.47323 0.78544,-0.88875 1.32032,-1.23047 h 0.002 c 0.5296,-0.35307 1.27467,-0.63849 2.23633,-0.87891 h 0.002 c 0.94157,-0.23912 2.05179,-0.3457 3.31641,-0.3457 z"
             id="path3933" /></g><g
           id="path3906"><path
             style="color:#000000;-inkscape-font-specification:'Stretch Pro, @wght=400';stroke:none;-inkscape-stroke:none"
             d="m 844.13386,774.65617 c 3.58306,0 5.36703,-1.16412 5.36703,-3.47724 v -0.13606 c 0,-2.298 -1.78397,-3.447 -5.36703,-3.447 h -8.64772 v 10.58288 h 3.59818 v -3.52258 z m -5.04954,-4.65647 h 4.98907 c 1.10364,0 1.66302,0.37796 1.66302,1.11876 v 0.0454 c 0,0.7408 -0.55938,1.11876 -1.66302,1.11876 h -4.98907 z"
             id="path3937" /><path
             style="color:#000000;-inkscape-font-specification:'Stretch Pro, @wght=400';stroke:none;-inkscape-stroke:none"
             d="m 835.39062,767.5 v 10.77539 h 3.78907 v -3.52344 h 4.95508 c 1.80191,0 3.15978,-0.29066 4.07812,-0.88672 0.91834,-0.59605 1.38477,-1.50434 1.38477,-2.68554 v -0.13672 c 0,-1.17381 -0.46641,-2.07578 -1.38477,-2.66602 -0.91835,-0.59023 -2.27635,-0.87695 -4.07812,-0.87695 z m 0.19141,0.19141 h 8.55274 c 1.78128,0 3.10521,0.28889 3.9746,0.84765 0.8694,0.55877 1.29493,1.37972 1.29493,2.50391 v 0.13672 c 0,1.13191 -0.42552,1.9611 -1.29493,2.52539 -0.8694,0.56429 -2.19346,0.85547 -3.9746,0.85547 h -5.14649 v 3.52148 h -3.40625 z m 3.40625,2.21289 V 770 v 2.37891 h 5.08594 c 0.56276,0 0.99667,-0.0953 1.29883,-0.29883 0.30215,-0.20349 0.45898,-0.52149 0.45898,-0.91602 v -0.0449 c 0,-0.39453 -0.15683,-0.71448 -0.45898,-0.91797 -0.30216,-0.20349 -0.73607,-0.29687 -1.29883,-0.29687 z m 0.19141,0.1914 h 4.89453 c 0.54087,0 0.93796,0.0949 1.1914,0.26563 0.25345,0.17069 0.37501,0.41154 0.375,0.75781 v 0.0449 c 0,0.34627 -0.12155,0.58713 -0.375,0.75781 -0.25344,0.17069 -0.65053,0.26563 -1.1914,0.26563 h -4.89453 z"
             id="path3939" /></g><g
           id="path3908"><path
             style="color:#000000;-inkscape-font-specification:'Stretch Pro, @wght=400';stroke:none;-inkscape-stroke:none"
             d="m 855.41703,778.17875 h 3.64354 v -8.07322 h 4.97395 v -2.50966 H 850.4582 v 2.50966 h 4.95883 z"
             id="path3943" /><path
             style="color:#000000;-inkscape-font-specification:'Stretch Pro, @wght=400';stroke:none;-inkscape-stroke:none"
             d="m 850.36328,767.5 v 2.70117 h 4.95703 v 8.07422 h 0.0977 3.73828 v -8.07422 h 4.97461 V 767.5 Z m 0.19141,0.19141 h 13.38476 v 2.31836 h -4.97461 v 8.07226 h -3.45117 v -8.07226 h -4.95898 z"
             id="path3945" /></g></g><g
         id="g2914"
         transform="matrix(0.20627032,0,0,0.20627032,684.89893,584.12901)"><path
           d="m 900.99702,436.24555 c 0.005,-4.51717 0.01,-9.03434 0.0149,-13.55151 2.44249,-1.36507 6.06614,-1.37432 6.74688,-0.32145 0.68074,1.05287 1.65786,2.13858 -0.23986,4.30561 -1.06517,1.21633 -3.37141,4.24509 -3.82125,4.82853 -0.44984,0.58344 -1.44459,2.23485 -0.77001,2.63065 m -2.53034,4.69992 c -3.19059,-3.19765 -6.38118,-6.39531 -9.57183,-9.5929 0.76185,-2.69235 3.31761,-5.2612 4.54346,-4.99806 1.22585,0.26313 2.68449,0.33992 2.87492,3.21413 0.10689,1.61327 0.61779,5.38568 0.71226,6.11632 0.0945,0.73064 0.55879,2.60176 1.31567,2.40463 m 1.53412,5.11257 c -4.51717,-0.005 -9.03434,-0.01 -13.55151,-0.0149 -1.36507,-2.44249 -1.37432,-6.06614 -0.32145,-6.74688 1.05287,-0.68074 2.13858,-1.65786 4.30561,0.23986 1.21633,1.06517 4.24509,3.37141 4.82853,3.82125 0.58344,0.44984 2.23485,1.44459 2.63065,0.77001 m 4.69992,2.53034 c -3.19765,3.19059 -6.39531,6.38118 -9.5929,9.57183 -2.69235,-0.76185 -5.2612,-3.31761 -4.99806,-4.54346 0.26313,-1.22585 0.33992,-2.68449 3.21413,-2.87492 1.61327,-0.10689 5.38568,-0.61779 6.11632,-0.71226 0.73064,-0.0945 2.60176,-0.55879 2.40463,-1.31567 m 5.11257,-1.53412 c -0.005,4.51717 -0.01,9.03434 -0.0149,13.55151 -2.44249,1.36507 -6.06614,1.37432 -6.74688,0.32145 -0.68074,-1.05287 -1.65786,-2.13858 0.23986,-4.30561 1.06517,-1.21633 3.37141,-4.24509 3.82125,-4.82853 0.44984,-0.58344 1.44459,-2.23485 0.77001,-2.63065 m 2.53034,-4.69992 c 3.19059,3.19765 6.38118,6.39531 9.57183,9.5929 -0.76185,2.69235 -3.31761,5.2612 -4.54346,4.99806 -1.22585,-0.26313 -2.68449,-0.33992 -2.87492,-3.21413 -0.10689,-1.61327 -0.61779,-5.38568 -0.71226,-6.11632 -0.0945,-0.73064 -0.55879,-2.60176 -1.31567,-2.40463 m -1.53412,-5.11257 c 4.51717,0.005 9.03434,0.01 13.55151,0.0149 1.36507,2.44249 1.37432,6.06614 0.32145,6.74688 -1.05287,0.68074 -2.13858,1.65786 -4.30561,-0.23986 -1.21633,-1.06517 -4.24509,-3.37141 -4.82853,-3.82125 -0.58344,-0.44984 -2.23485,-1.44459 -2.63065,-0.77001 m -4.69992,-2.53034 c 3.19765,-3.19059 6.39531,-6.38118 9.5929,-9.57183 2.69235,0.76185 5.2612,3.31761 4.99806,4.54346 -0.26313,1.22585 -0.33992,2.68449 -3.21413,2.87492 -1.61327,0.10689 -5.38568,0.61779 -6.11632,0.71226 -0.73064,0.0945 -2.60176,0.55879 -2.40463,1.31567"
           style="fill:#ffffff;fill-opacity:1;stroke-width:0.264583"
           id="path2910"
           transform="matrix(-1.115682,0,0,-1.115682,1919.3867,1165.0504)"
           inkscape:original-d="m 900.99702,436.24555 c 0.005,-4.51717 0.01,-9.03434 0.0149,-13.55151 2.44249,-1.36507 6.06614,-1.37432 6.74688,-0.32145 0.68074,1.05287 1.65786,2.13858 -0.23986,4.30561 -1.06517,1.21633 -3.37141,4.24509 -3.82125,4.82853 -0.44984,0.58344 -1.44459,2.23485 -0.77001,2.63065"
           inkscape:path-effect="#path-effect2918"
           class="UnoptimicedTransforms"
           sodipodi:nodetypes="cczssc"
           inkscape:export-filename="Users\Bob\vect-black2.svg"
           inkscape:export-xdpi="96"
           inkscape:export-ydpi="96" /><circle
           style="fill:none;fill-opacity:1;stroke:#ffffff;stroke-width:0.873258;stroke-linecap:square;stroke-linejoin:round;stroke-dasharray:none;stroke-opacity:1;paint-order:fill markers stroke"
           id="circle2912"
           cx="911.0047"
           cy="676.08557"
           r="4.3018131" /></g></g></g></svg>
